<svg width="26" height="22" viewBox="0 0 26 22" fill="none" xmlns="http://www.w3.org/2000/svg">
<path fill-rule="evenodd" clip-rule="evenodd" d="M12.3495 15.7059C11.3756 16.2565 10.2494 16.5712 9.04911 16.5712C7.84908 16.5712 6.72305 16.2567 5.74923 15.7062C3.16596 16.4904 1.58295 19.0887 1 21.3779H17.0985C16.5158 19.0887 14.933 16.4897 12.3495 15.7059Z" fill="white"/>
<path fill-rule="evenodd" clip-rule="evenodd" d="M9.04912 3.50192C5.84603 3.50192 3.24939 6.08517 3.24939 9.2718C3.24939 12.4584 5.84603 15.0416 9.04912 15.0416C12.2522 15.0416 14.8489 12.4584 14.8489 9.2718C14.8489 6.08517 12.2522 3.50192 9.04912 3.50192ZM9.04912 13.6666C7.20485 13.6666 5.6288 12.4395 4.99606 10.9128H13.1022C12.4693 12.4396 10.8934 13.6666 9.04912 13.6666Z" fill="white"/>
<path fill-rule="evenodd" clip-rule="evenodd" d="M16.8217 17.8611H25.3671C24.7895 15.5825 23.2206 13.4291 20.6599 12.6489C19.6945 13.197 18.5782 13.51 17.3885 13.51C16.5837 13.51 15.8127 13.366 15.0991 13.1037C14.6949 13.7802 14.1801 14.4921 13.5804 14.9974C15.0107 15.5474 16.0912 16.776 16.8217 17.8611Z" fill="white"/>
<path fill-rule="evenodd" clip-rule="evenodd" d="M15.95 7.87846H21.4059C20.7786 9.39756 19.2165 10.607 17.3885 10.607C16.9066 10.607 16.4436 10.5152 16.0108 10.3623C15.9382 10.8348 15.8185 11.2885 15.6568 11.7251C16.2033 11.8973 16.785 11.9889 17.3885 11.9889C20.5634 11.9889 23.1372 9.41671 23.1372 6.24494C23.1372 3.07301 20.5634 0.501343 17.3885 0.501343C15.3531 0.501343 13.5649 1.5703 12.5433 3.16465C14.2703 4.15575 15.5382 5.87108 15.95 7.87846Z" fill="white"/>
</svg>
