<svg width="22" height="20" viewBox="0 0 22 20" fill="none" xmlns="http://www.w3.org/2000/svg">
<rect x="2.48077" y="2.4375" width="1.65385" height="0.8125" fill="black" fill-opacity="0.38"/>
<rect y="7.3125" width="21.5" height="12.1875" fill="black" fill-opacity="0.38"/>
<rect x="17.3654" y="2.4375" width="1.65385" height="0.8125" fill="black" fill-opacity="0.38"/>
<path fill-rule="evenodd" clip-rule="evenodd" d="M19.0192 3.25V4.875H17.3654V3.25H14.8846V1.73164V1.625C14.8588 0.700781 14.1817 0 13.2204 0H8.09868C7.13738 0 6.61538 0.695703 6.61538 1.625V1.73164V3.25H4.13462V4.875H2.48077V3.25H0V6.5H21.5V3.25H19.0192ZM14.0577 3.22461V3.25H7.44231V3.22461V1.73164C7.44231 1.21367 7.59219 0.8125 8.15036 0.8125H13.1687C13.7063 0.8125 14.0577 1.20352 14.0577 1.73164V3.22461Z" fill="black" fill-opacity="0.38"/>
</svg>
