<svg width="123" height="146" viewBox="0 0 123 146" fill="none" xmlns="http://www.w3.org/2000/svg">
<path fill-rule="evenodd" clip-rule="evenodd" d="M2.10773 0.00146484C0.943568 0.00146484 -6.10352e-05 0.943325 -6.10352e-05 2.10531C-6.10352e-05 3.267 0.943568 4.20915 2.10773 4.20915C3.2719 4.20915 4.21553 3.267 4.21553 2.10531C4.21553 0.943325 3.2719 0.00146484 2.10773 0.00146484Z" fill="black" fill-opacity="0.42"/>
<path fill-rule="evenodd" clip-rule="evenodd" d="M2.10773 18.2584C0.943568 18.2584 -6.10352e-05 19.2003 -6.10352e-05 20.3623C-6.10352e-05 21.524 0.943568 22.4661 2.10773 22.4661C3.2719 22.4661 4.21553 21.524 4.21553 20.3623C4.21553 19.2003 3.2719 18.2584 2.10773 18.2584Z" fill="black" fill-opacity="0.42"/>
<path fill-rule="evenodd" clip-rule="evenodd" d="M2.10773 36.5155C0.943568 36.5155 -6.10352e-05 37.4574 -6.10352e-05 38.6193C-6.10352e-05 39.7813 0.943568 40.7232 2.10773 40.7232C3.2719 40.7232 4.21553 39.7813 4.21553 38.6193C4.21553 37.4574 3.2719 36.5155 2.10773 36.5155Z" fill="black" fill-opacity="0.42"/>
<path fill-rule="evenodd" clip-rule="evenodd" d="M2.10773 54.7725C0.943568 54.7725 -6.10352e-05 55.7146 -6.10352e-05 56.8763C-6.10352e-05 58.0383 0.943568 58.9801 2.10773 58.9801C3.2719 58.9801 4.21553 58.0383 4.21553 56.8763C4.21553 55.7146 3.2719 54.7725 2.10773 54.7725Z" fill="black" fill-opacity="0.42"/>
<path fill-rule="evenodd" clip-rule="evenodd" d="M2.10773 73.0295C0.943568 73.0295 -6.10352e-05 73.9714 -6.10352e-05 75.1334C-6.10352e-05 76.2951 0.943568 77.2372 2.10773 77.2372C3.2719 77.2372 4.21553 76.2951 4.21553 75.1334C4.21553 73.9714 3.2719 73.0295 2.10773 73.0295Z" fill="black" fill-opacity="0.42"/>
<path fill-rule="evenodd" clip-rule="evenodd" d="M2.10773 91.2866C0.943568 91.2866 -6.10352e-05 92.2288 -6.10352e-05 93.3905C-6.10352e-05 94.5525 0.943568 95.4943 2.10773 95.4943C3.2719 95.4943 4.21553 94.5525 4.21553 93.3905C4.21553 92.2288 3.2719 91.2866 2.10773 91.2866Z" fill="black" fill-opacity="0.42"/>
<path fill-rule="evenodd" clip-rule="evenodd" d="M2.10773 109.544C0.943568 109.544 -6.10352e-05 110.486 -6.10352e-05 111.647C-6.10352e-05 112.809 0.943568 113.751 2.10773 113.751C3.2719 113.751 4.21553 112.809 4.21553 111.647C4.21553 110.486 3.2719 109.544 2.10773 109.544Z" fill="black" fill-opacity="0.42"/>
<path fill-rule="evenodd" clip-rule="evenodd" d="M2.10773 127.801C0.943568 127.801 -6.10352e-05 128.743 -6.10352e-05 129.904C-6.10352e-05 131.066 0.943568 132.008 2.10773 132.008C3.2719 132.008 4.21553 131.066 4.21553 129.904C4.21553 128.743 3.2719 127.801 2.10773 127.801Z" fill="black" fill-opacity="0.42"/>
<path fill-rule="evenodd" clip-rule="evenodd" d="M20.3991 0.00146484C19.235 0.00146484 18.2914 0.943325 18.2914 2.10531C18.2914 3.267 19.235 4.20915 20.3991 4.20915C21.5633 4.20915 22.5069 3.267 22.5069 2.10531C22.5069 0.943325 21.5633 0.00146484 20.3991 0.00146484Z" fill="black" fill-opacity="0.42"/>
<path fill-rule="evenodd" clip-rule="evenodd" d="M20.3991 18.2584C19.235 18.2584 18.2914 19.2003 18.2914 20.3623C18.2914 21.524 19.235 22.4661 20.3991 22.4661C21.5633 22.4661 22.5069 21.524 22.5069 20.3623C22.5069 19.2003 21.5633 18.2584 20.3991 18.2584Z" fill="black" fill-opacity="0.42"/>
<path fill-rule="evenodd" clip-rule="evenodd" d="M20.3991 36.5155C19.235 36.5155 18.2914 37.4574 18.2914 38.6193C18.2914 39.7813 19.235 40.7232 20.3991 40.7232C21.5633 40.7232 22.5069 39.7813 22.5069 38.6193C22.5069 37.4574 21.5633 36.5155 20.3991 36.5155Z" fill="black" fill-opacity="0.42"/>
<path fill-rule="evenodd" clip-rule="evenodd" d="M20.3991 54.7725C19.235 54.7725 18.2914 55.7146 18.2914 56.8763C18.2914 58.0383 19.235 58.9801 20.3991 58.9801C21.5633 58.9801 22.5069 58.0383 22.5069 56.8763C22.5069 55.7146 21.5633 54.7725 20.3991 54.7725Z" fill="black" fill-opacity="0.42"/>
<path fill-rule="evenodd" clip-rule="evenodd" d="M20.3991 73.0295C19.235 73.0295 18.2914 73.9714 18.2914 75.1334C18.2914 76.2951 19.235 77.2372 20.3991 77.2372C21.5633 77.2372 22.5069 76.2951 22.5069 75.1334C22.5069 73.9714 21.5633 73.0295 20.3991 73.0295Z" fill="black" fill-opacity="0.42"/>
<path fill-rule="evenodd" clip-rule="evenodd" d="M20.3991 91.2866C19.235 91.2866 18.2914 92.2288 18.2914 93.3905C18.2914 94.5525 19.235 95.4943 20.3991 95.4943C21.5633 95.4943 22.5069 94.5525 22.5069 93.3905C22.5069 92.2288 21.5633 91.2866 20.3991 91.2866Z" fill="black" fill-opacity="0.42"/>
<path fill-rule="evenodd" clip-rule="evenodd" d="M20.3991 109.544C19.235 109.544 18.2914 110.486 18.2914 111.647C18.2914 112.809 19.235 113.751 20.3991 113.751C21.5633 113.751 22.5069 112.809 22.5069 111.647C22.5069 110.486 21.5633 109.544 20.3991 109.544Z" fill="black" fill-opacity="0.42"/>
<path fill-rule="evenodd" clip-rule="evenodd" d="M20.3991 127.801C19.235 127.801 18.2914 128.743 18.2914 129.904C18.2914 131.066 19.235 132.008 20.3991 132.008C21.5633 132.008 22.5069 131.066 22.5069 129.904C22.5069 128.743 21.5633 127.801 20.3991 127.801Z" fill="black" fill-opacity="0.42"/>
<path fill-rule="evenodd" clip-rule="evenodd" d="M38.6904 0.00146484C37.5263 0.00146484 36.5826 0.943325 36.5826 2.10531C36.5826 3.267 37.5263 4.20915 38.6904 4.20915C39.8546 4.20915 40.7982 3.267 40.7982 2.10531C40.7982 0.943325 39.8546 0.00146484 38.6904 0.00146484Z" fill="black" fill-opacity="0.42"/>
<path fill-rule="evenodd" clip-rule="evenodd" d="M38.6904 18.2584C37.5263 18.2584 36.5826 19.2003 36.5826 20.3623C36.5826 21.524 37.5263 22.4661 38.6904 22.4661C39.8546 22.4661 40.7982 21.524 40.7982 20.3623C40.7982 19.2003 39.8546 18.2584 38.6904 18.2584Z" fill="black" fill-opacity="0.42"/>
<path fill-rule="evenodd" clip-rule="evenodd" d="M38.6904 36.5155C37.5263 36.5155 36.5826 37.4574 36.5826 38.6193C36.5826 39.7813 37.5263 40.7232 38.6904 40.7232C39.8546 40.7232 40.7982 39.7813 40.7982 38.6193C40.7982 37.4574 39.8546 36.5155 38.6904 36.5155Z" fill="black" fill-opacity="0.42"/>
<path fill-rule="evenodd" clip-rule="evenodd" d="M38.6904 54.7725C37.5263 54.7725 36.5826 55.7146 36.5826 56.8763C36.5826 58.0383 37.5263 58.9801 38.6904 58.9801C39.8546 58.9801 40.7982 58.0383 40.7982 56.8763C40.7982 55.7146 39.8546 54.7725 38.6904 54.7725Z" fill="black" fill-opacity="0.42"/>
<path fill-rule="evenodd" clip-rule="evenodd" d="M38.6904 73.0295C37.5263 73.0295 36.5826 73.9714 36.5826 75.1334C36.5826 76.2951 37.5263 77.2372 38.6904 77.2372C39.8546 77.2372 40.7982 76.2951 40.7982 75.1334C40.7982 73.9714 39.8546 73.0295 38.6904 73.0295Z" fill="black" fill-opacity="0.42"/>
<path fill-rule="evenodd" clip-rule="evenodd" d="M38.6904 91.2866C37.5263 91.2866 36.5826 92.2288 36.5826 93.3905C36.5826 94.5525 37.5263 95.4943 38.6904 95.4943C39.8546 95.4943 40.7982 94.5525 40.7982 93.3905C40.7982 92.2288 39.8546 91.2866 38.6904 91.2866Z" fill="black" fill-opacity="0.42"/>
<path fill-rule="evenodd" clip-rule="evenodd" d="M38.6904 109.544C37.5263 109.544 36.5826 110.486 36.5826 111.647C36.5826 112.809 37.5263 113.751 38.6904 113.751C39.8546 113.751 40.7982 112.809 40.7982 111.647C40.7982 110.486 39.8546 109.544 38.6904 109.544Z" fill="black" fill-opacity="0.42"/>
<path fill-rule="evenodd" clip-rule="evenodd" d="M38.6904 127.801C37.5263 127.801 36.5826 128.743 36.5826 129.904C36.5826 131.066 37.5263 132.008 38.6904 132.008C39.8546 132.008 40.7982 131.066 40.7982 129.904C40.7982 128.743 39.8546 127.801 38.6904 127.801Z" fill="black" fill-opacity="0.42"/>
<path fill-rule="evenodd" clip-rule="evenodd" d="M56.9817 0.00146484C55.8175 0.00146484 54.8739 0.943325 54.8739 2.10531C54.8739 3.267 55.8175 4.20915 56.9817 4.20915C58.1459 4.20915 59.0895 3.267 59.0895 2.10531C59.0895 0.943325 58.1459 0.00146484 56.9817 0.00146484Z" fill="black" fill-opacity="0.42"/>
<path fill-rule="evenodd" clip-rule="evenodd" d="M56.9817 18.2584C55.8175 18.2584 54.8739 19.2003 54.8739 20.3623C54.8739 21.524 55.8175 22.4661 56.9817 22.4661C58.1459 22.4661 59.0895 21.524 59.0895 20.3623C59.0895 19.2003 58.1459 18.2584 56.9817 18.2584Z" fill="black" fill-opacity="0.42"/>
<path fill-rule="evenodd" clip-rule="evenodd" d="M56.9817 36.5155C55.8175 36.5155 54.8739 37.4574 54.8739 38.6193C54.8739 39.7813 55.8175 40.7232 56.9817 40.7232C58.1459 40.7232 59.0895 39.7813 59.0895 38.6193C59.0895 37.4574 58.1459 36.5155 56.9817 36.5155Z" fill="black" fill-opacity="0.42"/>
<path fill-rule="evenodd" clip-rule="evenodd" d="M56.9817 54.7725C55.8175 54.7725 54.8739 55.7146 54.8739 56.8763C54.8739 58.0383 55.8175 58.9801 56.9817 58.9801C58.1459 58.9801 59.0895 58.0383 59.0895 56.8763C59.0895 55.7146 58.1459 54.7725 56.9817 54.7725Z" fill="black" fill-opacity="0.42"/>
<path fill-rule="evenodd" clip-rule="evenodd" d="M56.9817 73.0295C55.8175 73.0295 54.8739 73.9714 54.8739 75.1334C54.8739 76.2951 55.8175 77.2372 56.9817 77.2372C58.1459 77.2372 59.0895 76.2951 59.0895 75.1334C59.0895 73.9714 58.1459 73.0295 56.9817 73.0295Z" fill="black" fill-opacity="0.42"/>
<path fill-rule="evenodd" clip-rule="evenodd" d="M56.9817 91.2866C55.8175 91.2866 54.8739 92.2288 54.8739 93.3905C54.8739 94.5525 55.8175 95.4943 56.9817 95.4943C58.1459 95.4943 59.0895 94.5525 59.0895 93.3905C59.0895 92.2288 58.1459 91.2866 56.9817 91.2866Z" fill="black" fill-opacity="0.42"/>
<path fill-rule="evenodd" clip-rule="evenodd" d="M56.9817 109.544C55.8175 109.544 54.8739 110.486 54.8739 111.647C54.8739 112.809 55.8175 113.751 56.9817 113.751C58.1459 113.751 59.0895 112.809 59.0895 111.647C59.0895 110.486 58.1459 109.544 56.9817 109.544Z" fill="black" fill-opacity="0.42"/>
<path fill-rule="evenodd" clip-rule="evenodd" d="M56.9817 127.801C55.8175 127.801 54.8739 128.743 54.8739 129.904C54.8739 131.066 55.8175 132.008 56.9817 132.008C58.1459 132.008 59.0895 131.066 59.0895 129.904C59.0895 128.743 58.1459 127.801 56.9817 127.801Z" fill="black" fill-opacity="0.42"/>
<path fill-rule="evenodd" clip-rule="evenodd" d="M75.273 0.00146484C74.1088 0.00146484 73.1652 0.943325 73.1652 2.10531C73.1652 3.267 74.1088 4.20915 75.273 4.20915C76.4372 4.20915 77.3808 3.267 77.3808 2.10531C77.3808 0.943325 76.4372 0.00146484 75.273 0.00146484Z" fill="black" fill-opacity="0.42"/>
<path fill-rule="evenodd" clip-rule="evenodd" d="M75.273 18.2584C74.1088 18.2584 73.1652 19.2003 73.1652 20.3623C73.1652 21.524 74.1088 22.4661 75.273 22.4661C76.4372 22.4661 77.3808 21.524 77.3808 20.3623C77.3808 19.2003 76.4372 18.2584 75.273 18.2584Z" fill="black" fill-opacity="0.42"/>
<path fill-rule="evenodd" clip-rule="evenodd" d="M75.273 36.5155C74.1088 36.5155 73.1652 37.4574 73.1652 38.6193C73.1652 39.7813 74.1088 40.7232 75.273 40.7232C76.4372 40.7232 77.3808 39.7813 77.3808 38.6193C77.3808 37.4574 76.4372 36.5155 75.273 36.5155Z" fill="black" fill-opacity="0.42"/>
<path fill-rule="evenodd" clip-rule="evenodd" d="M75.273 54.7725C74.1088 54.7725 73.1652 55.7146 73.1652 56.8763C73.1652 58.0383 74.1088 58.9801 75.273 58.9801C76.4372 58.9801 77.3808 58.0383 77.3808 56.8763C77.3808 55.7146 76.4372 54.7725 75.273 54.7725Z" fill="black" fill-opacity="0.42"/>
<path fill-rule="evenodd" clip-rule="evenodd" d="M75.273 73.0295C74.1088 73.0295 73.1652 73.9714 73.1652 75.1334C73.1652 76.2951 74.1088 77.2372 75.273 77.2372C76.4372 77.2372 77.3808 76.2951 77.3808 75.1334C77.3808 73.9714 76.4372 73.0295 75.273 73.0295Z" fill="black" fill-opacity="0.42"/>
<path fill-rule="evenodd" clip-rule="evenodd" d="M75.273 91.2866C74.1088 91.2866 73.1652 92.2288 73.1652 93.3905C73.1652 94.5525 74.1088 95.4943 75.273 95.4943C76.4372 95.4943 77.3808 94.5525 77.3808 93.3905C77.3808 92.2288 76.4372 91.2866 75.273 91.2866Z" fill="black" fill-opacity="0.42"/>
<path fill-rule="evenodd" clip-rule="evenodd" d="M75.273 109.544C74.1088 109.544 73.1652 110.486 73.1652 111.647C73.1652 112.809 74.1088 113.751 75.273 113.751C76.4372 113.751 77.3808 112.809 77.3808 111.647C77.3808 110.486 76.4372 109.544 75.273 109.544Z" fill="black" fill-opacity="0.42"/>
<path fill-rule="evenodd" clip-rule="evenodd" d="M75.273 127.801C74.1088 127.801 73.1652 128.743 73.1652 129.904C73.1652 131.066 74.1088 132.008 75.273 132.008C76.4372 132.008 77.3808 131.066 77.3808 129.904C77.3808 128.743 76.4372 127.801 75.273 127.801Z" fill="black" fill-opacity="0.42"/>
<path fill-rule="evenodd" clip-rule="evenodd" d="M93.5644 0.00146484C92.4002 0.00146484 91.4566 0.943325 91.4566 2.10531C91.4566 3.267 92.4002 4.20915 93.5644 4.20915C94.7286 4.20915 95.6722 3.267 95.6722 2.10531C95.6722 0.943325 94.7286 0.00146484 93.5644 0.00146484Z" fill="black" fill-opacity="0.42"/>
<path fill-rule="evenodd" clip-rule="evenodd" d="M93.5644 18.2584C92.4002 18.2584 91.4566 19.2003 91.4566 20.3623C91.4566 21.524 92.4002 22.4661 93.5644 22.4661C94.7286 22.4661 95.6722 21.524 95.6722 20.3623C95.6722 19.2003 94.7286 18.2584 93.5644 18.2584Z" fill="black" fill-opacity="0.42"/>
<path fill-rule="evenodd" clip-rule="evenodd" d="M93.5644 36.5155C92.4002 36.5155 91.4566 37.4574 91.4566 38.6193C91.4566 39.7813 92.4002 40.7232 93.5644 40.7232C94.7286 40.7232 95.6722 39.7813 95.6722 38.6193C95.6722 37.4574 94.7286 36.5155 93.5644 36.5155Z" fill="black" fill-opacity="0.42"/>
<path fill-rule="evenodd" clip-rule="evenodd" d="M93.5644 54.7725C92.4002 54.7725 91.4566 55.7146 91.4566 56.8763C91.4566 58.0383 92.4002 58.9801 93.5644 58.9801C94.7286 58.9801 95.6722 58.0383 95.6722 56.8763C95.6722 55.7146 94.7286 54.7725 93.5644 54.7725Z" fill="black" fill-opacity="0.42"/>
<path fill-rule="evenodd" clip-rule="evenodd" d="M93.5644 73.0295C92.4002 73.0295 91.4566 73.9714 91.4566 75.1334C91.4566 76.2951 92.4002 77.2372 93.5644 77.2372C94.7286 77.2372 95.6722 76.2951 95.6722 75.1334C95.6722 73.9714 94.7286 73.0295 93.5644 73.0295Z" fill="black" fill-opacity="0.42"/>
<path fill-rule="evenodd" clip-rule="evenodd" d="M93.5644 91.2866C92.4002 91.2866 91.4566 92.2288 91.4566 93.3905C91.4566 94.5525 92.4002 95.4943 93.5644 95.4943C94.7286 95.4943 95.6722 94.5525 95.6722 93.3905C95.6722 92.2288 94.7286 91.2866 93.5644 91.2866Z" fill="black" fill-opacity="0.42"/>
<path fill-rule="evenodd" clip-rule="evenodd" d="M93.5644 109.544C92.4002 109.544 91.4566 110.486 91.4566 111.647C91.4566 112.809 92.4002 113.751 93.5644 113.751C94.7286 113.751 95.6722 112.809 95.6722 111.647C95.6722 110.486 94.7286 109.544 93.5644 109.544Z" fill="black" fill-opacity="0.42"/>
<path fill-rule="evenodd" clip-rule="evenodd" d="M93.5644 127.801C92.4002 127.801 91.4566 128.743 91.4566 129.904C91.4566 131.066 92.4002 132.008 93.5644 132.008C94.7286 132.008 95.6722 131.066 95.6722 129.904C95.6722 128.743 94.7286 127.801 93.5644 127.801Z" fill="black" fill-opacity="0.42"/>
<path fill-rule="evenodd" clip-rule="evenodd" d="M111.856 0.00146484C110.692 0.00146484 109.748 0.943325 109.748 2.10531C109.748 3.267 110.692 4.20915 111.856 4.20915C113.02 4.20915 113.963 3.267 113.963 2.10531C113.963 0.943325 113.02 0.00146484 111.856 0.00146484Z" fill="black" fill-opacity="0.42"/>
<path fill-rule="evenodd" clip-rule="evenodd" d="M111.856 18.2584C110.692 18.2584 109.748 19.2003 109.748 20.3623C109.748 21.524 110.692 22.4661 111.856 22.4661C113.02 22.4661 113.963 21.524 113.963 20.3623C113.963 19.2003 113.02 18.2584 111.856 18.2584Z" fill="black" fill-opacity="0.42"/>
<path fill-rule="evenodd" clip-rule="evenodd" d="M111.856 36.5155C110.692 36.5155 109.748 37.4574 109.748 38.6193C109.748 39.7813 110.692 40.7232 111.856 40.7232C113.02 40.7232 113.963 39.7813 113.963 38.6193C113.963 37.4574 113.02 36.5155 111.856 36.5155Z" fill="black" fill-opacity="0.42"/>
<path fill-rule="evenodd" clip-rule="evenodd" d="M111.856 54.7725C110.692 54.7725 109.748 55.7146 109.748 56.8763C109.748 58.0383 110.692 58.9801 111.856 58.9801C113.02 58.9801 113.963 58.0383 113.963 56.8763C113.963 55.7146 113.02 54.7725 111.856 54.7725Z" fill="black" fill-opacity="0.42"/>
<path fill-rule="evenodd" clip-rule="evenodd" d="M111.856 73.0295C110.692 73.0295 109.748 73.9714 109.748 75.1334C109.748 76.2951 110.692 77.2372 111.856 77.2372C113.02 77.2372 113.963 76.2951 113.963 75.1334C113.963 73.9714 113.02 73.0295 111.856 73.0295Z" fill="black" fill-opacity="0.42"/>
<path fill-rule="evenodd" clip-rule="evenodd" d="M111.856 91.2866C110.692 91.2866 109.748 92.2288 109.748 93.3905C109.748 94.5525 110.692 95.4943 111.856 95.4943C113.02 95.4943 113.963 94.5525 113.963 93.3905C113.963 92.2288 113.02 91.2866 111.856 91.2866Z" fill="black" fill-opacity="0.42"/>
<path fill-rule="evenodd" clip-rule="evenodd" d="M111.856 109.544C110.692 109.544 109.748 110.486 109.748 111.647C109.748 112.809 110.692 113.751 111.856 113.751C113.02 113.751 113.963 112.809 113.963 111.647C113.963 110.486 113.02 109.544 111.856 109.544Z" fill="black" fill-opacity="0.42"/>
<path fill-rule="evenodd" clip-rule="evenodd" d="M111.856 127.801C110.692 127.801 109.748 128.743 109.748 129.904C109.748 131.066 110.692 132.008 111.856 132.008C113.02 132.008 113.963 131.066 113.963 129.904C113.963 128.743 113.02 127.801 111.856 127.801Z" fill="black" fill-opacity="0.42"/>
</svg>
