<svg width="388" height="505" viewBox="0 0 388 505" fill="none" xmlns="http://www.w3.org/2000/svg">
<path fill-rule="evenodd" clip-rule="evenodd" d="M3.65088 0.00244141C1.63438 0.00244141 -0.00012207 1.63694 -0.00012207 3.65344C-0.00012207 5.66944 1.63438 7.30444 3.65088 7.30444C5.66738 7.30444 7.30188 5.66944 7.30188 3.65344C7.30188 1.63694 5.66738 0.00244141 3.65088 0.00244141Z" fill="black" fill-opacity="0.42"/>
<path fill-rule="evenodd" clip-rule="evenodd" d="M3.65088 31.6855C1.63438 31.6855 -0.00012207 33.32 -0.00012207 35.3365C-0.00012207 37.3525 1.63438 38.9875 3.65088 38.9875C5.66738 38.9875 7.30188 37.3525 7.30188 35.3365C7.30188 33.32 5.66738 31.6855 3.65088 31.6855Z" fill="black" fill-opacity="0.42"/>
<path fill-rule="evenodd" clip-rule="evenodd" d="M3.65088 63.3687C1.63438 63.3687 -0.00012207 65.0032 -0.00012207 67.0197C-0.00012207 69.0362 1.63438 70.6707 3.65088 70.6707C5.66738 70.6707 7.30188 69.0362 7.30188 67.0197C7.30188 65.0032 5.66738 63.3687 3.65088 63.3687Z" fill="black" fill-opacity="0.42"/>
<path fill-rule="evenodd" clip-rule="evenodd" d="M3.65088 95.0518C1.63438 95.0518 -0.00012207 96.6868 -0.00012207 98.7028C-0.00012207 100.719 1.63438 102.354 3.65088 102.354C5.66738 102.354 7.30188 100.719 7.30188 98.7028C7.30188 96.6868 5.66738 95.0518 3.65088 95.0518Z" fill="black" fill-opacity="0.42"/>
<path fill-rule="evenodd" clip-rule="evenodd" d="M3.65088 126.735C1.63438 126.735 -0.00012207 128.37 -0.00012207 130.386C-0.00012207 132.402 1.63438 134.037 3.65088 134.037C5.66738 134.037 7.30188 132.402 7.30188 130.386C7.30188 128.37 5.66738 126.735 3.65088 126.735Z" fill="black" fill-opacity="0.42"/>
<path fill-rule="evenodd" clip-rule="evenodd" d="M3.65088 158.418C1.63438 158.418 -0.00012207 160.053 -0.00012207 162.069C-0.00012207 164.086 1.63438 165.72 3.65088 165.72C5.66738 165.72 7.30188 164.086 7.30188 162.069C7.30188 160.053 5.66738 158.418 3.65088 158.418Z" fill="black" fill-opacity="0.42"/>
<path fill-rule="evenodd" clip-rule="evenodd" d="M3.65088 190.101C1.63438 190.101 -0.00012207 191.736 -0.00012207 193.752C-0.00012207 195.769 1.63438 197.403 3.65088 197.403C5.66738 197.403 7.30188 195.769 7.30188 193.752C7.30188 191.736 5.66738 190.101 3.65088 190.101Z" fill="black" fill-opacity="0.42"/>
<path fill-rule="evenodd" clip-rule="evenodd" d="M3.65088 221.784C1.63438 221.784 -0.00012207 223.419 -0.00012207 225.435C-0.00012207 227.452 1.63438 229.086 3.65088 229.086C5.66738 229.086 7.30188 227.452 7.30188 225.435C7.30188 223.419 5.66738 221.784 3.65088 221.784Z" fill="black" fill-opacity="0.42"/>
<path fill-rule="evenodd" clip-rule="evenodd" d="M3.65088 253.468C1.63438 253.468 -0.00012207 255.103 -0.00012207 257.119C-0.00012207 259.135 1.63438 260.77 3.65088 260.77C5.66738 260.77 7.30188 259.135 7.30188 257.119C7.30188 255.103 5.66738 253.468 3.65088 253.468Z" fill="black" fill-opacity="0.42"/>
<path fill-rule="evenodd" clip-rule="evenodd" d="M3.65088 285.151C1.63438 285.151 -0.00012207 286.786 -0.00012207 288.802C-0.00012207 290.818 1.63438 292.453 3.65088 292.453C5.66738 292.453 7.30188 290.818 7.30188 288.802C7.30188 286.786 5.66738 285.151 3.65088 285.151Z" fill="black" fill-opacity="0.42"/>
<path fill-rule="evenodd" clip-rule="evenodd" d="M3.65088 316.834C1.63438 316.834 -0.00012207 318.469 -0.00012207 320.485C-0.00012207 322.501 1.63438 324.136 3.65088 324.136C5.66738 324.136 7.30188 322.501 7.30188 320.485C7.30188 318.469 5.66738 316.834 3.65088 316.834Z" fill="black" fill-opacity="0.42"/>
<path fill-rule="evenodd" clip-rule="evenodd" d="M3.65088 348.517C1.63438 348.517 -0.00012207 350.152 -0.00012207 352.168C-0.00012207 354.184 1.63438 355.819 3.65088 355.819C5.66738 355.819 7.30188 354.184 7.30188 352.168C7.30188 350.152 5.66738 348.517 3.65088 348.517Z" fill="black" fill-opacity="0.42"/>
<path fill-rule="evenodd" clip-rule="evenodd" d="M3.65088 380.2C1.63438 380.2 -0.00012207 381.835 -0.00012207 383.851C-0.00012207 385.868 1.63438 387.502 3.65088 387.502C5.66738 387.502 7.30188 385.868 7.30188 383.851C7.30188 381.835 5.66738 380.2 3.65088 380.2Z" fill="black" fill-opacity="0.42"/>
<path fill-rule="evenodd" clip-rule="evenodd" d="M3.65088 411.884C1.63438 411.884 -0.00012207 413.519 -0.00012207 415.535C-0.00012207 417.551 1.63438 419.186 3.65088 419.186C5.66738 419.186 7.30188 417.551 7.30188 415.535C7.30188 413.519 5.66738 411.884 3.65088 411.884Z" fill="black" fill-opacity="0.42"/>
<path fill-rule="evenodd" clip-rule="evenodd" d="M3.65088 443.567C1.63438 443.567 -0.00012207 445.202 -0.00012207 447.218C-0.00012207 449.234 1.63438 450.869 3.65088 450.869C5.66738 450.869 7.30188 449.234 7.30188 447.218C7.30188 445.202 5.66738 443.567 3.65088 443.567Z" fill="black" fill-opacity="0.42"/>
<path fill-rule="evenodd" clip-rule="evenodd" d="M3.65088 470.25C1.63438 470.25 -0.00012207 471.885 -0.00012207 473.901C-0.00012207 475.917 1.63438 477.552 3.65088 477.552C5.66738 477.552 7.30188 475.917 7.30188 473.901C7.30188 471.885 5.66738 470.25 3.65088 470.25Z" fill="black" fill-opacity="0.42"/>
<path fill-rule="evenodd" clip-rule="evenodd" d="M3.65088 496.933C1.63438 496.933 -0.00012207 498.568 -0.00012207 500.584C-0.00012207 502.6 1.63438 504.235 3.65088 504.235C5.66738 504.235 7.30188 502.6 7.30188 500.584C7.30188 498.568 5.66738 496.933 3.65088 496.933Z" fill="black" fill-opacity="0.42"/>
<path fill-rule="evenodd" clip-rule="evenodd" d="M35.3342 0.00244141C33.3177 0.00244141 31.6832 1.63694 31.6832 3.65344C31.6832 5.66944 33.3177 7.30444 35.3342 7.30444C37.3507 7.30444 38.9852 5.66944 38.9852 3.65344C38.9852 1.63694 37.3507 0.00244141 35.3342 0.00244141Z" fill="black" fill-opacity="0.42"/>
<path fill-rule="evenodd" clip-rule="evenodd" d="M35.3342 31.6855C33.3177 31.6855 31.6832 33.32 31.6832 35.3365C31.6832 37.3525 33.3177 38.9875 35.3342 38.9875C37.3507 38.9875 38.9852 37.3525 38.9852 35.3365C38.9852 33.32 37.3507 31.6855 35.3342 31.6855Z" fill="black" fill-opacity="0.42"/>
<path fill-rule="evenodd" clip-rule="evenodd" d="M35.3342 63.3687C33.3177 63.3687 31.6832 65.0032 31.6832 67.0197C31.6832 69.0362 33.3177 70.6707 35.3342 70.6707C37.3507 70.6707 38.9852 69.0362 38.9852 67.0197C38.9852 65.0032 37.3507 63.3687 35.3342 63.3687Z" fill="black" fill-opacity="0.42"/>
<path fill-rule="evenodd" clip-rule="evenodd" d="M35.3342 95.0518C33.3177 95.0518 31.6832 96.6868 31.6832 98.7028C31.6832 100.719 33.3177 102.354 35.3342 102.354C37.3507 102.354 38.9852 100.719 38.9852 98.7028C38.9852 96.6868 37.3507 95.0518 35.3342 95.0518Z" fill="black" fill-opacity="0.42"/>
<path fill-rule="evenodd" clip-rule="evenodd" d="M35.3342 126.735C33.3177 126.735 31.6832 128.37 31.6832 130.386C31.6832 132.402 33.3177 134.037 35.3342 134.037C37.3507 134.037 38.9852 132.402 38.9852 130.386C38.9852 128.37 37.3507 126.735 35.3342 126.735Z" fill="black" fill-opacity="0.42"/>
<path fill-rule="evenodd" clip-rule="evenodd" d="M35.3342 158.418C33.3177 158.418 31.6832 160.053 31.6832 162.069C31.6832 164.086 33.3177 165.72 35.3342 165.72C37.3507 165.72 38.9852 164.086 38.9852 162.069C38.9852 160.053 37.3507 158.418 35.3342 158.418Z" fill="black" fill-opacity="0.42"/>
<path fill-rule="evenodd" clip-rule="evenodd" d="M35.3342 190.101C33.3177 190.101 31.6832 191.736 31.6832 193.752C31.6832 195.769 33.3177 197.403 35.3342 197.403C37.3507 197.403 38.9852 195.769 38.9852 193.752C38.9852 191.736 37.3507 190.101 35.3342 190.101Z" fill="black" fill-opacity="0.42"/>
<path fill-rule="evenodd" clip-rule="evenodd" d="M35.3342 221.784C33.3177 221.784 31.6832 223.419 31.6832 225.435C31.6832 227.452 33.3177 229.086 35.3342 229.086C37.3507 229.086 38.9852 227.452 38.9852 225.435C38.9852 223.419 37.3507 221.784 35.3342 221.784Z" fill="black" fill-opacity="0.42"/>
<path fill-rule="evenodd" clip-rule="evenodd" d="M35.3342 253.468C33.3177 253.468 31.6832 255.103 31.6832 257.119C31.6832 259.135 33.3177 260.77 35.3342 260.77C37.3507 260.77 38.9852 259.135 38.9852 257.119C38.9852 255.103 37.3507 253.468 35.3342 253.468Z" fill="black" fill-opacity="0.42"/>
<path fill-rule="evenodd" clip-rule="evenodd" d="M35.3342 285.151C33.3177 285.151 31.6832 286.786 31.6832 288.802C31.6832 290.818 33.3177 292.453 35.3342 292.453C37.3507 292.453 38.9852 290.818 38.9852 288.802C38.9852 286.786 37.3507 285.151 35.3342 285.151Z" fill="black" fill-opacity="0.42"/>
<path fill-rule="evenodd" clip-rule="evenodd" d="M35.3342 316.834C33.3177 316.834 31.6832 318.469 31.6832 320.485C31.6832 322.501 33.3177 324.136 35.3342 324.136C37.3507 324.136 38.9852 322.501 38.9852 320.485C38.9852 318.469 37.3507 316.834 35.3342 316.834Z" fill="black" fill-opacity="0.42"/>
<path fill-rule="evenodd" clip-rule="evenodd" d="M35.3342 348.517C33.3177 348.517 31.6832 350.152 31.6832 352.168C31.6832 354.184 33.3177 355.819 35.3342 355.819C37.3507 355.819 38.9852 354.184 38.9852 352.168C38.9852 350.152 37.3507 348.517 35.3342 348.517Z" fill="black" fill-opacity="0.42"/>
<path fill-rule="evenodd" clip-rule="evenodd" d="M35.3342 380.2C33.3177 380.2 31.6832 381.835 31.6832 383.851C31.6832 385.868 33.3177 387.502 35.3342 387.502C37.3507 387.502 38.9852 385.868 38.9852 383.851C38.9852 381.835 37.3507 380.2 35.3342 380.2Z" fill="black" fill-opacity="0.42"/>
<path fill-rule="evenodd" clip-rule="evenodd" d="M35.3342 411.884C33.3177 411.884 31.6832 413.519 31.6832 415.535C31.6832 417.551 33.3177 419.186 35.3342 419.186C37.3507 419.186 38.9852 417.551 38.9852 415.535C38.9852 413.519 37.3507 411.884 35.3342 411.884Z" fill="black" fill-opacity="0.42"/>
<path fill-rule="evenodd" clip-rule="evenodd" d="M35.3342 443.567C33.3177 443.567 31.6832 445.202 31.6832 447.218C31.6832 449.234 33.3177 450.869 35.3342 450.869C37.3507 450.869 38.9852 449.234 38.9852 447.218C38.9852 445.202 37.3507 443.567 35.3342 443.567Z" fill="black" fill-opacity="0.42"/>
<path fill-rule="evenodd" clip-rule="evenodd" d="M35.3342 470.25C33.3177 470.25 31.6832 471.885 31.6832 473.901C31.6832 475.917 33.3177 477.552 35.3342 477.552C37.3507 477.552 38.9852 475.917 38.9852 473.901C38.9852 471.885 37.3507 470.25 35.3342 470.25Z" fill="black" fill-opacity="0.42"/>
<path fill-rule="evenodd" clip-rule="evenodd" d="M35.3342 496.933C33.3177 496.933 31.6832 498.568 31.6832 500.584C31.6832 502.6 33.3177 504.235 35.3342 504.235C37.3507 504.235 38.9852 502.6 38.9852 500.584C38.9852 498.568 37.3507 496.933 35.3342 496.933Z" fill="black" fill-opacity="0.42"/>
<path fill-rule="evenodd" clip-rule="evenodd" d="M67.0173 0.00244141C65.0008 0.00244141 63.3663 1.63694 63.3663 3.65344C63.3663 5.66944 65.0008 7.30444 67.0173 7.30444C69.0338 7.30444 70.6683 5.66944 70.6683 3.65344C70.6683 1.63694 69.0338 0.00244141 67.0173 0.00244141Z" fill="black" fill-opacity="0.42"/>
<path fill-rule="evenodd" clip-rule="evenodd" d="M67.0173 31.6855C65.0008 31.6855 63.3663 33.32 63.3663 35.3365C63.3663 37.3525 65.0008 38.9875 67.0173 38.9875C69.0338 38.9875 70.6683 37.3525 70.6683 35.3365C70.6683 33.32 69.0338 31.6855 67.0173 31.6855Z" fill="black" fill-opacity="0.42"/>
<path fill-rule="evenodd" clip-rule="evenodd" d="M67.0173 63.3687C65.0008 63.3687 63.3663 65.0032 63.3663 67.0197C63.3663 69.0362 65.0008 70.6707 67.0173 70.6707C69.0338 70.6707 70.6683 69.0362 70.6683 67.0197C70.6683 65.0032 69.0338 63.3687 67.0173 63.3687Z" fill="black" fill-opacity="0.42"/>
<path fill-rule="evenodd" clip-rule="evenodd" d="M67.0173 95.0518C65.0008 95.0518 63.3663 96.6868 63.3663 98.7028C63.3663 100.719 65.0008 102.354 67.0173 102.354C69.0338 102.354 70.6683 100.719 70.6683 98.7028C70.6683 96.6868 69.0338 95.0518 67.0173 95.0518Z" fill="black" fill-opacity="0.42"/>
<path fill-rule="evenodd" clip-rule="evenodd" d="M67.0173 126.735C65.0008 126.735 63.3663 128.37 63.3663 130.386C63.3663 132.402 65.0008 134.037 67.0173 134.037C69.0338 134.037 70.6683 132.402 70.6683 130.386C70.6683 128.37 69.0338 126.735 67.0173 126.735Z" fill="black" fill-opacity="0.42"/>
<path fill-rule="evenodd" clip-rule="evenodd" d="M67.0173 158.418C65.0008 158.418 63.3663 160.053 63.3663 162.069C63.3663 164.086 65.0008 165.72 67.0173 165.72C69.0338 165.72 70.6683 164.086 70.6683 162.069C70.6683 160.053 69.0338 158.418 67.0173 158.418Z" fill="black" fill-opacity="0.42"/>
<path fill-rule="evenodd" clip-rule="evenodd" d="M67.0173 190.101C65.0008 190.101 63.3663 191.736 63.3663 193.752C63.3663 195.769 65.0008 197.403 67.0173 197.403C69.0338 197.403 70.6683 195.769 70.6683 193.752C70.6683 191.736 69.0338 190.101 67.0173 190.101Z" fill="black" fill-opacity="0.42"/>
<path fill-rule="evenodd" clip-rule="evenodd" d="M67.0173 221.784C65.0008 221.784 63.3663 223.419 63.3663 225.435C63.3663 227.452 65.0008 229.086 67.0173 229.086C69.0338 229.086 70.6683 227.452 70.6683 225.435C70.6683 223.419 69.0338 221.784 67.0173 221.784Z" fill="black" fill-opacity="0.42"/>
<path fill-rule="evenodd" clip-rule="evenodd" d="M67.0173 253.468C65.0008 253.468 63.3663 255.103 63.3663 257.119C63.3663 259.135 65.0008 260.77 67.0173 260.77C69.0338 260.77 70.6683 259.135 70.6683 257.119C70.6683 255.103 69.0338 253.468 67.0173 253.468Z" fill="black" fill-opacity="0.42"/>
<path fill-rule="evenodd" clip-rule="evenodd" d="M67.0173 285.151C65.0008 285.151 63.3663 286.786 63.3663 288.802C63.3663 290.818 65.0008 292.453 67.0173 292.453C69.0338 292.453 70.6683 290.818 70.6683 288.802C70.6683 286.786 69.0338 285.151 67.0173 285.151Z" fill="black" fill-opacity="0.42"/>
<path fill-rule="evenodd" clip-rule="evenodd" d="M67.0173 316.834C65.0008 316.834 63.3663 318.469 63.3663 320.485C63.3663 322.501 65.0008 324.136 67.0173 324.136C69.0338 324.136 70.6683 322.501 70.6683 320.485C70.6683 318.469 69.0338 316.834 67.0173 316.834Z" fill="black" fill-opacity="0.42"/>
<path fill-rule="evenodd" clip-rule="evenodd" d="M67.0173 348.517C65.0008 348.517 63.3663 350.152 63.3663 352.168C63.3663 354.184 65.0008 355.819 67.0173 355.819C69.0338 355.819 70.6683 354.184 70.6683 352.168C70.6683 350.152 69.0338 348.517 67.0173 348.517Z" fill="black" fill-opacity="0.42"/>
<path fill-rule="evenodd" clip-rule="evenodd" d="M67.0173 380.2C65.0008 380.2 63.3663 381.835 63.3663 383.851C63.3663 385.868 65.0008 387.502 67.0173 387.502C69.0338 387.502 70.6683 385.868 70.6683 383.851C70.6683 381.835 69.0338 380.2 67.0173 380.2Z" fill="black" fill-opacity="0.42"/>
<path fill-rule="evenodd" clip-rule="evenodd" d="M67.0173 411.884C65.0008 411.884 63.3663 413.519 63.3663 415.535C63.3663 417.551 65.0008 419.186 67.0173 419.186C69.0338 419.186 70.6683 417.551 70.6683 415.535C70.6683 413.519 69.0338 411.884 67.0173 411.884Z" fill="black" fill-opacity="0.42"/>
<path fill-rule="evenodd" clip-rule="evenodd" d="M67.0173 443.567C65.0008 443.567 63.3663 445.202 63.3663 447.218C63.3663 449.234 65.0008 450.869 67.0173 450.869C69.0338 450.869 70.6683 449.234 70.6683 447.218C70.6683 445.202 69.0338 443.567 67.0173 443.567Z" fill="black" fill-opacity="0.42"/>
<path fill-rule="evenodd" clip-rule="evenodd" d="M67.0173 470.25C65.0008 470.25 63.3663 471.885 63.3663 473.901C63.3663 475.917 65.0008 477.552 67.0173 477.552C69.0338 477.552 70.6683 475.917 70.6683 473.901C70.6683 471.885 69.0338 470.25 67.0173 470.25Z" fill="black" fill-opacity="0.42"/>
<path fill-rule="evenodd" clip-rule="evenodd" d="M67.0173 496.933C65.0008 496.933 63.3663 498.568 63.3663 500.584C63.3663 502.6 65.0008 504.235 67.0173 504.235C69.0338 504.235 70.6683 502.6 70.6683 500.584C70.6683 498.568 69.0338 496.933 67.0173 496.933Z" fill="black" fill-opacity="0.42"/>
<path fill-rule="evenodd" clip-rule="evenodd" d="M98.7004 0.00244141C96.6839 0.00244141 95.0494 1.63694 95.0494 3.65344C95.0494 5.66944 96.6839 7.30444 98.7004 7.30444C100.717 7.30444 102.351 5.66944 102.351 3.65344C102.351 1.63694 100.717 0.00244141 98.7004 0.00244141Z" fill="black" fill-opacity="0.42"/>
<path fill-rule="evenodd" clip-rule="evenodd" d="M98.7004 31.6855C96.6839 31.6855 95.0494 33.32 95.0494 35.3365C95.0494 37.3525 96.6839 38.9875 98.7004 38.9875C100.717 38.9875 102.351 37.3525 102.351 35.3365C102.351 33.32 100.717 31.6855 98.7004 31.6855Z" fill="black" fill-opacity="0.42"/>
<path fill-rule="evenodd" clip-rule="evenodd" d="M98.7004 63.3687C96.6839 63.3687 95.0494 65.0032 95.0494 67.0197C95.0494 69.0362 96.6839 70.6707 98.7004 70.6707C100.717 70.6707 102.351 69.0362 102.351 67.0197C102.351 65.0032 100.717 63.3687 98.7004 63.3687Z" fill="black" fill-opacity="0.42"/>
<path fill-rule="evenodd" clip-rule="evenodd" d="M98.7004 95.0518C96.6839 95.0518 95.0494 96.6868 95.0494 98.7028C95.0494 100.719 96.6839 102.354 98.7004 102.354C100.717 102.354 102.351 100.719 102.351 98.7028C102.351 96.6868 100.717 95.0518 98.7004 95.0518Z" fill="black" fill-opacity="0.42"/>
<path fill-rule="evenodd" clip-rule="evenodd" d="M98.7004 126.735C96.6839 126.735 95.0494 128.37 95.0494 130.386C95.0494 132.402 96.6839 134.037 98.7004 134.037C100.717 134.037 102.351 132.402 102.351 130.386C102.351 128.37 100.717 126.735 98.7004 126.735Z" fill="black" fill-opacity="0.42"/>
<path fill-rule="evenodd" clip-rule="evenodd" d="M98.7004 158.418C96.6839 158.418 95.0494 160.053 95.0494 162.069C95.0494 164.086 96.6839 165.72 98.7004 165.72C100.717 165.72 102.351 164.086 102.351 162.069C102.351 160.053 100.717 158.418 98.7004 158.418Z" fill="black" fill-opacity="0.42"/>
<path fill-rule="evenodd" clip-rule="evenodd" d="M98.7004 190.101C96.6839 190.101 95.0494 191.736 95.0494 193.752C95.0494 195.769 96.6839 197.403 98.7004 197.403C100.717 197.403 102.351 195.769 102.351 193.752C102.351 191.736 100.717 190.101 98.7004 190.101Z" fill="black" fill-opacity="0.42"/>
<path fill-rule="evenodd" clip-rule="evenodd" d="M98.7004 221.784C96.6839 221.784 95.0494 223.419 95.0494 225.435C95.0494 227.452 96.6839 229.086 98.7004 229.086C100.717 229.086 102.351 227.452 102.351 225.435C102.351 223.419 100.717 221.784 98.7004 221.784Z" fill="black" fill-opacity="0.42"/>
<path fill-rule="evenodd" clip-rule="evenodd" d="M98.7004 253.468C96.6839 253.468 95.0494 255.103 95.0494 257.119C95.0494 259.135 96.6839 260.77 98.7004 260.77C100.717 260.77 102.351 259.135 102.351 257.119C102.351 255.103 100.717 253.468 98.7004 253.468Z" fill="black" fill-opacity="0.42"/>
<path fill-rule="evenodd" clip-rule="evenodd" d="M98.7004 285.151C96.6839 285.151 95.0494 286.786 95.0494 288.802C95.0494 290.818 96.6839 292.453 98.7004 292.453C100.717 292.453 102.351 290.818 102.351 288.802C102.351 286.786 100.717 285.151 98.7004 285.151Z" fill="black" fill-opacity="0.42"/>
<path fill-rule="evenodd" clip-rule="evenodd" d="M98.7004 316.834C96.6839 316.834 95.0494 318.469 95.0494 320.485C95.0494 322.501 96.6839 324.136 98.7004 324.136C100.717 324.136 102.351 322.501 102.351 320.485C102.351 318.469 100.717 316.834 98.7004 316.834Z" fill="black" fill-opacity="0.42"/>
<path fill-rule="evenodd" clip-rule="evenodd" d="M98.7004 348.517C96.6839 348.517 95.0494 350.152 95.0494 352.168C95.0494 354.184 96.6839 355.819 98.7004 355.819C100.717 355.819 102.351 354.184 102.351 352.168C102.351 350.152 100.717 348.517 98.7004 348.517Z" fill="black" fill-opacity="0.42"/>
<path fill-rule="evenodd" clip-rule="evenodd" d="M98.7004 380.2C96.6839 380.2 95.0494 381.835 95.0494 383.851C95.0494 385.868 96.6839 387.502 98.7004 387.502C100.717 387.502 102.351 385.868 102.351 383.851C102.351 381.835 100.717 380.2 98.7004 380.2Z" fill="black" fill-opacity="0.42"/>
<path fill-rule="evenodd" clip-rule="evenodd" d="M98.7004 411.884C96.6839 411.884 95.0494 413.519 95.0494 415.535C95.0494 417.551 96.6839 419.186 98.7004 419.186C100.717 419.186 102.351 417.551 102.351 415.535C102.351 413.519 100.717 411.884 98.7004 411.884Z" fill="black" fill-opacity="0.42"/>
<path fill-rule="evenodd" clip-rule="evenodd" d="M98.7004 443.567C96.6839 443.567 95.0494 445.202 95.0494 447.218C95.0494 449.234 96.6839 450.869 98.7004 450.869C100.717 450.869 102.351 449.234 102.351 447.218C102.351 445.202 100.717 443.567 98.7004 443.567Z" fill="black" fill-opacity="0.42"/>
<path fill-rule="evenodd" clip-rule="evenodd" d="M98.7004 470.25C96.6839 470.25 95.0494 471.885 95.0494 473.901C95.0494 475.917 96.6839 477.552 98.7004 477.552C100.717 477.552 102.351 475.917 102.351 473.901C102.351 471.885 100.717 470.25 98.7004 470.25Z" fill="black" fill-opacity="0.42"/>
<path fill-rule="evenodd" clip-rule="evenodd" d="M98.7004 496.933C96.6839 496.933 95.0494 498.568 95.0494 500.584C95.0494 502.6 96.6839 504.235 98.7004 504.235C100.717 504.235 102.351 502.6 102.351 500.584C102.351 498.568 100.717 496.933 98.7004 496.933Z" fill="black" fill-opacity="0.42"/>
<path fill-rule="evenodd" clip-rule="evenodd" d="M130.384 0.00244141C128.367 0.00244141 126.733 1.63694 126.733 3.65344C126.733 5.66944 128.367 7.30444 130.384 7.30444C132.4 7.30444 134.035 5.66944 134.035 3.65344C134.035 1.63694 132.4 0.00244141 130.384 0.00244141Z" fill="black" fill-opacity="0.42"/>
<path fill-rule="evenodd" clip-rule="evenodd" d="M130.384 31.6855C128.367 31.6855 126.733 33.32 126.733 35.3365C126.733 37.3525 128.367 38.9875 130.384 38.9875C132.4 38.9875 134.035 37.3525 134.035 35.3365C134.035 33.32 132.4 31.6855 130.384 31.6855Z" fill="black" fill-opacity="0.42"/>
<path fill-rule="evenodd" clip-rule="evenodd" d="M130.384 63.3687C128.367 63.3687 126.733 65.0032 126.733 67.0197C126.733 69.0362 128.367 70.6707 130.384 70.6707C132.4 70.6707 134.035 69.0362 134.035 67.0197C134.035 65.0032 132.4 63.3687 130.384 63.3687Z" fill="black" fill-opacity="0.42"/>
<path fill-rule="evenodd" clip-rule="evenodd" d="M130.384 95.0518C128.367 95.0518 126.733 96.6868 126.733 98.7028C126.733 100.719 128.367 102.354 130.384 102.354C132.4 102.354 134.035 100.719 134.035 98.7028C134.035 96.6868 132.4 95.0518 130.384 95.0518Z" fill="black" fill-opacity="0.42"/>
<path fill-rule="evenodd" clip-rule="evenodd" d="M130.384 126.735C128.367 126.735 126.733 128.37 126.733 130.386C126.733 132.402 128.367 134.037 130.384 134.037C132.4 134.037 134.035 132.402 134.035 130.386C134.035 128.37 132.4 126.735 130.384 126.735Z" fill="black" fill-opacity="0.42"/>
<path fill-rule="evenodd" clip-rule="evenodd" d="M130.384 158.418C128.367 158.418 126.733 160.053 126.733 162.069C126.733 164.086 128.367 165.72 130.384 165.72C132.4 165.72 134.035 164.086 134.035 162.069C134.035 160.053 132.4 158.418 130.384 158.418Z" fill="black" fill-opacity="0.42"/>
<path fill-rule="evenodd" clip-rule="evenodd" d="M130.384 190.101C128.367 190.101 126.733 191.736 126.733 193.752C126.733 195.769 128.367 197.403 130.384 197.403C132.4 197.403 134.035 195.769 134.035 193.752C134.035 191.736 132.4 190.101 130.384 190.101Z" fill="black" fill-opacity="0.42"/>
<path fill-rule="evenodd" clip-rule="evenodd" d="M130.384 221.784C128.367 221.784 126.733 223.419 126.733 225.435C126.733 227.452 128.367 229.086 130.384 229.086C132.4 229.086 134.035 227.452 134.035 225.435C134.035 223.419 132.4 221.784 130.384 221.784Z" fill="black" fill-opacity="0.42"/>
<path fill-rule="evenodd" clip-rule="evenodd" d="M130.384 253.468C128.367 253.468 126.733 255.103 126.733 257.119C126.733 259.135 128.367 260.77 130.384 260.77C132.4 260.77 134.035 259.135 134.035 257.119C134.035 255.103 132.4 253.468 130.384 253.468Z" fill="black" fill-opacity="0.42"/>
<path fill-rule="evenodd" clip-rule="evenodd" d="M130.384 285.151C128.367 285.151 126.733 286.786 126.733 288.802C126.733 290.818 128.367 292.453 130.384 292.453C132.4 292.453 134.035 290.818 134.035 288.802C134.035 286.786 132.4 285.151 130.384 285.151Z" fill="black" fill-opacity="0.42"/>
<path fill-rule="evenodd" clip-rule="evenodd" d="M130.384 316.834C128.367 316.834 126.733 318.469 126.733 320.485C126.733 322.501 128.367 324.136 130.384 324.136C132.4 324.136 134.035 322.501 134.035 320.485C134.035 318.469 132.4 316.834 130.384 316.834Z" fill="black" fill-opacity="0.42"/>
<path fill-rule="evenodd" clip-rule="evenodd" d="M130.384 348.517C128.367 348.517 126.733 350.152 126.733 352.168C126.733 354.184 128.367 355.819 130.384 355.819C132.4 355.819 134.035 354.184 134.035 352.168C134.035 350.152 132.4 348.517 130.384 348.517Z" fill="black" fill-opacity="0.42"/>
<path fill-rule="evenodd" clip-rule="evenodd" d="M130.384 380.2C128.367 380.2 126.733 381.835 126.733 383.851C126.733 385.868 128.367 387.502 130.384 387.502C132.4 387.502 134.035 385.868 134.035 383.851C134.035 381.835 132.4 380.2 130.384 380.2Z" fill="black" fill-opacity="0.42"/>
<path fill-rule="evenodd" clip-rule="evenodd" d="M130.384 411.884C128.367 411.884 126.733 413.519 126.733 415.535C126.733 417.551 128.367 419.186 130.384 419.186C132.4 419.186 134.035 417.551 134.035 415.535C134.035 413.519 132.4 411.884 130.384 411.884Z" fill="black" fill-opacity="0.42"/>
<path fill-rule="evenodd" clip-rule="evenodd" d="M130.384 443.567C128.367 443.567 126.733 445.202 126.733 447.218C126.733 449.234 128.367 450.869 130.384 450.869C132.4 450.869 134.035 449.234 134.035 447.218C134.035 445.202 132.4 443.567 130.384 443.567Z" fill="black" fill-opacity="0.42"/>
<path fill-rule="evenodd" clip-rule="evenodd" d="M130.384 470.25C128.367 470.25 126.733 471.885 126.733 473.901C126.733 475.917 128.367 477.552 130.384 477.552C132.4 477.552 134.035 475.917 134.035 473.901C134.035 471.885 132.4 470.25 130.384 470.25Z" fill="black" fill-opacity="0.42"/>
<path fill-rule="evenodd" clip-rule="evenodd" d="M130.384 496.933C128.367 496.933 126.733 498.568 126.733 500.584C126.733 502.6 128.367 504.235 130.384 504.235C132.4 504.235 134.035 502.6 134.035 500.584C134.035 498.568 132.4 496.933 130.384 496.933Z" fill="black" fill-opacity="0.42"/>
<path fill-rule="evenodd" clip-rule="evenodd" d="M162.067 0.00244141C160.05 0.00244141 158.416 1.63694 158.416 3.65344C158.416 5.66944 160.05 7.30444 162.067 7.30444C164.083 7.30444 165.718 5.66944 165.718 3.65344C165.718 1.63694 164.083 0.00244141 162.067 0.00244141Z" fill="black" fill-opacity="0.42"/>
<path fill-rule="evenodd" clip-rule="evenodd" d="M162.067 31.6855C160.05 31.6855 158.416 33.32 158.416 35.3365C158.416 37.3525 160.05 38.9875 162.067 38.9875C164.083 38.9875 165.718 37.3525 165.718 35.3365C165.718 33.32 164.083 31.6855 162.067 31.6855Z" fill="black" fill-opacity="0.42"/>
<path fill-rule="evenodd" clip-rule="evenodd" d="M162.067 63.3687C160.05 63.3687 158.416 65.0032 158.416 67.0197C158.416 69.0362 160.05 70.6707 162.067 70.6707C164.083 70.6707 165.718 69.0362 165.718 67.0197C165.718 65.0032 164.083 63.3687 162.067 63.3687Z" fill="black" fill-opacity="0.42"/>
<path fill-rule="evenodd" clip-rule="evenodd" d="M162.067 95.0518C160.05 95.0518 158.416 96.6868 158.416 98.7028C158.416 100.719 160.05 102.354 162.067 102.354C164.083 102.354 165.718 100.719 165.718 98.7028C165.718 96.6868 164.083 95.0518 162.067 95.0518Z" fill="black" fill-opacity="0.42"/>
<path fill-rule="evenodd" clip-rule="evenodd" d="M162.067 126.735C160.05 126.735 158.416 128.37 158.416 130.386C158.416 132.402 160.05 134.037 162.067 134.037C164.083 134.037 165.718 132.402 165.718 130.386C165.718 128.37 164.083 126.735 162.067 126.735Z" fill="black" fill-opacity="0.42"/>
<path fill-rule="evenodd" clip-rule="evenodd" d="M162.067 158.418C160.05 158.418 158.416 160.053 158.416 162.069C158.416 164.086 160.05 165.72 162.067 165.72C164.083 165.72 165.718 164.086 165.718 162.069C165.718 160.053 164.083 158.418 162.067 158.418Z" fill="black" fill-opacity="0.42"/>
<path fill-rule="evenodd" clip-rule="evenodd" d="M162.067 190.101C160.05 190.101 158.416 191.736 158.416 193.752C158.416 195.769 160.05 197.403 162.067 197.403C164.083 197.403 165.718 195.769 165.718 193.752C165.718 191.736 164.083 190.101 162.067 190.101Z" fill="black" fill-opacity="0.42"/>
<path fill-rule="evenodd" clip-rule="evenodd" d="M162.067 221.784C160.05 221.784 158.416 223.419 158.416 225.435C158.416 227.452 160.05 229.086 162.067 229.086C164.083 229.086 165.718 227.452 165.718 225.435C165.718 223.419 164.083 221.784 162.067 221.784Z" fill="black" fill-opacity="0.42"/>
<path fill-rule="evenodd" clip-rule="evenodd" d="M162.067 253.468C160.05 253.468 158.416 255.103 158.416 257.119C158.416 259.135 160.05 260.77 162.067 260.77C164.083 260.77 165.718 259.135 165.718 257.119C165.718 255.103 164.083 253.468 162.067 253.468Z" fill="black" fill-opacity="0.42"/>
<path fill-rule="evenodd" clip-rule="evenodd" d="M162.067 285.151C160.05 285.151 158.416 286.786 158.416 288.802C158.416 290.818 160.05 292.453 162.067 292.453C164.083 292.453 165.718 290.818 165.718 288.802C165.718 286.786 164.083 285.151 162.067 285.151Z" fill="black" fill-opacity="0.42"/>
<path fill-rule="evenodd" clip-rule="evenodd" d="M162.067 316.834C160.05 316.834 158.416 318.469 158.416 320.485C158.416 322.501 160.05 324.136 162.067 324.136C164.083 324.136 165.718 322.501 165.718 320.485C165.718 318.469 164.083 316.834 162.067 316.834Z" fill="black" fill-opacity="0.42"/>
<path fill-rule="evenodd" clip-rule="evenodd" d="M162.067 348.517C160.05 348.517 158.416 350.152 158.416 352.168C158.416 354.184 160.05 355.819 162.067 355.819C164.083 355.819 165.718 354.184 165.718 352.168C165.718 350.152 164.083 348.517 162.067 348.517Z" fill="black" fill-opacity="0.42"/>
<path fill-rule="evenodd" clip-rule="evenodd" d="M162.067 380.2C160.05 380.2 158.416 381.835 158.416 383.851C158.416 385.868 160.05 387.502 162.067 387.502C164.083 387.502 165.718 385.868 165.718 383.851C165.718 381.835 164.083 380.2 162.067 380.2Z" fill="black" fill-opacity="0.42"/>
<path fill-rule="evenodd" clip-rule="evenodd" d="M162.067 411.884C160.05 411.884 158.416 413.519 158.416 415.535C158.416 417.551 160.05 419.186 162.067 419.186C164.083 419.186 165.718 417.551 165.718 415.535C165.718 413.519 164.083 411.884 162.067 411.884Z" fill="black" fill-opacity="0.42"/>
<path fill-rule="evenodd" clip-rule="evenodd" d="M162.067 443.567C160.05 443.567 158.416 445.202 158.416 447.218C158.416 449.234 160.05 450.869 162.067 450.869C164.083 450.869 165.718 449.234 165.718 447.218C165.718 445.202 164.083 443.567 162.067 443.567Z" fill="black" fill-opacity="0.42"/>
<path fill-rule="evenodd" clip-rule="evenodd" d="M162.067 470.25C160.05 470.25 158.416 471.885 158.416 473.901C158.416 475.917 160.05 477.552 162.067 477.552C164.083 477.552 165.718 475.917 165.718 473.901C165.718 471.885 164.083 470.25 162.067 470.25Z" fill="black" fill-opacity="0.42"/>
<path fill-rule="evenodd" clip-rule="evenodd" d="M162.067 496.933C160.05 496.933 158.416 498.568 158.416 500.584C158.416 502.6 160.05 504.235 162.067 504.235C164.083 504.235 165.718 502.6 165.718 500.584C165.718 498.568 164.083 496.933 162.067 496.933Z" fill="black" fill-opacity="0.42"/>
<path fill-rule="evenodd" clip-rule="evenodd" d="M193.75 0.00244141C191.733 0.00244141 190.099 1.63694 190.099 3.65344C190.099 5.66944 191.733 7.30444 193.75 7.30444C195.766 7.30444 197.401 5.66944 197.401 3.65344C197.401 1.63694 195.766 0.00244141 193.75 0.00244141Z" fill="black" fill-opacity="0.42"/>
<path fill-rule="evenodd" clip-rule="evenodd" d="M193.75 31.6855C191.733 31.6855 190.099 33.32 190.099 35.3365C190.099 37.3525 191.733 38.9875 193.75 38.9875C195.766 38.9875 197.401 37.3525 197.401 35.3365C197.401 33.32 195.766 31.6855 193.75 31.6855Z" fill="black" fill-opacity="0.42"/>
<path fill-rule="evenodd" clip-rule="evenodd" d="M193.75 63.3687C191.733 63.3687 190.099 65.0032 190.099 67.0197C190.099 69.0362 191.733 70.6707 193.75 70.6707C195.766 70.6707 197.401 69.0362 197.401 67.0197C197.401 65.0032 195.766 63.3687 193.75 63.3687Z" fill="black" fill-opacity="0.42"/>
<path fill-rule="evenodd" clip-rule="evenodd" d="M193.75 95.0518C191.733 95.0518 190.099 96.6868 190.099 98.7028C190.099 100.719 191.733 102.354 193.75 102.354C195.766 102.354 197.401 100.719 197.401 98.7028C197.401 96.6868 195.766 95.0518 193.75 95.0518Z" fill="black" fill-opacity="0.42"/>
<path fill-rule="evenodd" clip-rule="evenodd" d="M193.75 126.735C191.733 126.735 190.099 128.37 190.099 130.386C190.099 132.402 191.733 134.037 193.75 134.037C195.766 134.037 197.401 132.402 197.401 130.386C197.401 128.37 195.766 126.735 193.75 126.735Z" fill="black" fill-opacity="0.42"/>
<path fill-rule="evenodd" clip-rule="evenodd" d="M193.75 158.418C191.733 158.418 190.099 160.053 190.099 162.069C190.099 164.086 191.733 165.72 193.75 165.72C195.766 165.72 197.401 164.086 197.401 162.069C197.401 160.053 195.766 158.418 193.75 158.418Z" fill="black" fill-opacity="0.42"/>
<path fill-rule="evenodd" clip-rule="evenodd" d="M193.75 190.101C191.733 190.101 190.099 191.736 190.099 193.752C190.099 195.769 191.733 197.403 193.75 197.403C195.766 197.403 197.401 195.769 197.401 193.752C197.401 191.736 195.766 190.101 193.75 190.101Z" fill="black" fill-opacity="0.42"/>
<path fill-rule="evenodd" clip-rule="evenodd" d="M193.75 221.784C191.733 221.784 190.099 223.419 190.099 225.435C190.099 227.452 191.733 229.086 193.75 229.086C195.766 229.086 197.401 227.452 197.401 225.435C197.401 223.419 195.766 221.784 193.75 221.784Z" fill="black" fill-opacity="0.42"/>
<path fill-rule="evenodd" clip-rule="evenodd" d="M193.75 253.468C191.733 253.468 190.099 255.103 190.099 257.119C190.099 259.135 191.733 260.77 193.75 260.77C195.766 260.77 197.401 259.135 197.401 257.119C197.401 255.103 195.766 253.468 193.75 253.468Z" fill="black" fill-opacity="0.42"/>
<path fill-rule="evenodd" clip-rule="evenodd" d="M193.75 285.151C191.733 285.151 190.099 286.786 190.099 288.802C190.099 290.818 191.733 292.453 193.75 292.453C195.766 292.453 197.401 290.818 197.401 288.802C197.401 286.786 195.766 285.151 193.75 285.151Z" fill="black" fill-opacity="0.42"/>
<path fill-rule="evenodd" clip-rule="evenodd" d="M193.75 316.834C191.733 316.834 190.099 318.469 190.099 320.485C190.099 322.501 191.733 324.136 193.75 324.136C195.766 324.136 197.401 322.501 197.401 320.485C197.401 318.469 195.766 316.834 193.75 316.834Z" fill="black" fill-opacity="0.42"/>
<path fill-rule="evenodd" clip-rule="evenodd" d="M193.75 348.517C191.733 348.517 190.099 350.152 190.099 352.168C190.099 354.184 191.733 355.819 193.75 355.819C195.766 355.819 197.401 354.184 197.401 352.168C197.401 350.152 195.766 348.517 193.75 348.517Z" fill="black" fill-opacity="0.42"/>
<path fill-rule="evenodd" clip-rule="evenodd" d="M193.75 380.2C191.733 380.2 190.099 381.835 190.099 383.851C190.099 385.868 191.733 387.502 193.75 387.502C195.766 387.502 197.401 385.868 197.401 383.851C197.401 381.835 195.766 380.2 193.75 380.2Z" fill="black" fill-opacity="0.42"/>
<path fill-rule="evenodd" clip-rule="evenodd" d="M193.75 411.884C191.733 411.884 190.099 413.519 190.099 415.535C190.099 417.551 191.733 419.186 193.75 419.186C195.766 419.186 197.401 417.551 197.401 415.535C197.401 413.519 195.766 411.884 193.75 411.884Z" fill="black" fill-opacity="0.42"/>
<path fill-rule="evenodd" clip-rule="evenodd" d="M193.75 443.567C191.733 443.567 190.099 445.202 190.099 447.218C190.099 449.234 191.733 450.869 193.75 450.869C195.766 450.869 197.401 449.234 197.401 447.218C197.401 445.202 195.766 443.567 193.75 443.567Z" fill="black" fill-opacity="0.42"/>
<path fill-rule="evenodd" clip-rule="evenodd" d="M193.75 470.25C191.733 470.25 190.099 471.885 190.099 473.901C190.099 475.917 191.733 477.552 193.75 477.552C195.766 477.552 197.401 475.917 197.401 473.901C197.401 471.885 195.766 470.25 193.75 470.25Z" fill="black" fill-opacity="0.42"/>
<path fill-rule="evenodd" clip-rule="evenodd" d="M193.75 496.933C191.733 496.933 190.099 498.568 190.099 500.584C190.099 502.6 191.733 504.235 193.75 504.235C195.766 504.235 197.401 502.6 197.401 500.584C197.401 498.568 195.766 496.933 193.75 496.933Z" fill="black" fill-opacity="0.42"/>
<path fill-rule="evenodd" clip-rule="evenodd" d="M225.433 0.00244141C223.417 0.00244141 221.782 1.63694 221.782 3.65344C221.782 5.66944 223.417 7.30444 225.433 7.30444C227.45 7.30444 229.084 5.66944 229.084 3.65344C229.084 1.63694 227.45 0.00244141 225.433 0.00244141Z" fill="black" fill-opacity="0.42"/>
<path fill-rule="evenodd" clip-rule="evenodd" d="M225.433 31.6855C223.417 31.6855 221.782 33.32 221.782 35.3365C221.782 37.3525 223.417 38.9875 225.433 38.9875C227.45 38.9875 229.084 37.3525 229.084 35.3365C229.084 33.32 227.45 31.6855 225.433 31.6855Z" fill="black" fill-opacity="0.42"/>
<path fill-rule="evenodd" clip-rule="evenodd" d="M225.433 63.3687C223.417 63.3687 221.782 65.0032 221.782 67.0197C221.782 69.0362 223.417 70.6707 225.433 70.6707C227.45 70.6707 229.084 69.0362 229.084 67.0197C229.084 65.0032 227.45 63.3687 225.433 63.3687Z" fill="black" fill-opacity="0.42"/>
<path fill-rule="evenodd" clip-rule="evenodd" d="M225.433 95.0518C223.417 95.0518 221.782 96.6868 221.782 98.7028C221.782 100.719 223.417 102.354 225.433 102.354C227.45 102.354 229.084 100.719 229.084 98.7028C229.084 96.6868 227.45 95.0518 225.433 95.0518Z" fill="black" fill-opacity="0.42"/>
<path fill-rule="evenodd" clip-rule="evenodd" d="M225.433 126.735C223.417 126.735 221.782 128.37 221.782 130.386C221.782 132.402 223.417 134.037 225.433 134.037C227.45 134.037 229.084 132.402 229.084 130.386C229.084 128.37 227.45 126.735 225.433 126.735Z" fill="black" fill-opacity="0.42"/>
<path fill-rule="evenodd" clip-rule="evenodd" d="M225.433 158.418C223.417 158.418 221.782 160.053 221.782 162.069C221.782 164.086 223.417 165.72 225.433 165.72C227.45 165.72 229.084 164.086 229.084 162.069C229.084 160.053 227.45 158.418 225.433 158.418Z" fill="black" fill-opacity="0.42"/>
<path fill-rule="evenodd" clip-rule="evenodd" d="M225.433 190.101C223.417 190.101 221.782 191.736 221.782 193.752C221.782 195.769 223.417 197.403 225.433 197.403C227.45 197.403 229.084 195.769 229.084 193.752C229.084 191.736 227.45 190.101 225.433 190.101Z" fill="black" fill-opacity="0.42"/>
<path fill-rule="evenodd" clip-rule="evenodd" d="M225.433 221.784C223.417 221.784 221.782 223.419 221.782 225.435C221.782 227.452 223.417 229.086 225.433 229.086C227.45 229.086 229.084 227.452 229.084 225.435C229.084 223.419 227.45 221.784 225.433 221.784Z" fill="black" fill-opacity="0.42"/>
<path fill-rule="evenodd" clip-rule="evenodd" d="M225.433 253.468C223.417 253.468 221.782 255.103 221.782 257.119C221.782 259.135 223.417 260.77 225.433 260.77C227.45 260.77 229.084 259.135 229.084 257.119C229.084 255.103 227.45 253.468 225.433 253.468Z" fill="black" fill-opacity="0.42"/>
<path fill-rule="evenodd" clip-rule="evenodd" d="M225.433 285.151C223.417 285.151 221.782 286.786 221.782 288.802C221.782 290.818 223.417 292.453 225.433 292.453C227.45 292.453 229.084 290.818 229.084 288.802C229.084 286.786 227.45 285.151 225.433 285.151Z" fill="black" fill-opacity="0.42"/>
<path fill-rule="evenodd" clip-rule="evenodd" d="M225.433 316.834C223.417 316.834 221.782 318.469 221.782 320.485C221.782 322.501 223.417 324.136 225.433 324.136C227.45 324.136 229.084 322.501 229.084 320.485C229.084 318.469 227.45 316.834 225.433 316.834Z" fill="black" fill-opacity="0.42"/>
<path fill-rule="evenodd" clip-rule="evenodd" d="M225.433 348.517C223.417 348.517 221.782 350.152 221.782 352.168C221.782 354.184 223.417 355.819 225.433 355.819C227.45 355.819 229.084 354.184 229.084 352.168C229.084 350.152 227.45 348.517 225.433 348.517Z" fill="black" fill-opacity="0.42"/>
<path fill-rule="evenodd" clip-rule="evenodd" d="M225.433 380.2C223.417 380.2 221.782 381.835 221.782 383.851C221.782 385.868 223.417 387.502 225.433 387.502C227.45 387.502 229.084 385.868 229.084 383.851C229.084 381.835 227.45 380.2 225.433 380.2Z" fill="black" fill-opacity="0.42"/>
<path fill-rule="evenodd" clip-rule="evenodd" d="M225.433 411.884C223.417 411.884 221.782 413.519 221.782 415.535C221.782 417.551 223.417 419.186 225.433 419.186C227.45 419.186 229.084 417.551 229.084 415.535C229.084 413.519 227.45 411.884 225.433 411.884Z" fill="black" fill-opacity="0.42"/>
<path fill-rule="evenodd" clip-rule="evenodd" d="M225.433 443.567C223.417 443.567 221.782 445.202 221.782 447.218C221.782 449.234 223.417 450.869 225.433 450.869C227.45 450.869 229.084 449.234 229.084 447.218C229.084 445.202 227.45 443.567 225.433 443.567Z" fill="black" fill-opacity="0.42"/>
<path fill-rule="evenodd" clip-rule="evenodd" d="M225.433 470.25C223.417 470.25 221.782 471.885 221.782 473.901C221.782 475.917 223.417 477.552 225.433 477.552C227.45 477.552 229.084 475.917 229.084 473.901C229.084 471.885 227.45 470.25 225.433 470.25Z" fill="black" fill-opacity="0.42"/>
<path fill-rule="evenodd" clip-rule="evenodd" d="M225.433 496.933C223.417 496.933 221.782 498.568 221.782 500.584C221.782 502.6 223.417 504.235 225.433 504.235C227.45 504.235 229.084 502.6 229.084 500.584C229.084 498.568 227.45 496.933 225.433 496.933Z" fill="black" fill-opacity="0.42"/>
<path fill-rule="evenodd" clip-rule="evenodd" d="M257.116 0.00244141C255.1 0.00244141 253.465 1.63694 253.465 3.65344C253.465 5.66944 255.1 7.30444 257.116 7.30444C259.133 7.30444 260.767 5.66944 260.767 3.65344C260.767 1.63694 259.133 0.00244141 257.116 0.00244141Z" fill="black" fill-opacity="0.42"/>
<path fill-rule="evenodd" clip-rule="evenodd" d="M257.116 31.6855C255.1 31.6855 253.465 33.32 253.465 35.3365C253.465 37.3525 255.1 38.9875 257.116 38.9875C259.133 38.9875 260.767 37.3525 260.767 35.3365C260.767 33.32 259.133 31.6855 257.116 31.6855Z" fill="black" fill-opacity="0.42"/>
<path fill-rule="evenodd" clip-rule="evenodd" d="M257.116 63.3687C255.1 63.3687 253.465 65.0032 253.465 67.0197C253.465 69.0362 255.1 70.6707 257.116 70.6707C259.133 70.6707 260.767 69.0362 260.767 67.0197C260.767 65.0032 259.133 63.3687 257.116 63.3687Z" fill="black" fill-opacity="0.42"/>
<path fill-rule="evenodd" clip-rule="evenodd" d="M257.116 95.0518C255.1 95.0518 253.465 96.6868 253.465 98.7028C253.465 100.719 255.1 102.354 257.116 102.354C259.133 102.354 260.767 100.719 260.767 98.7028C260.767 96.6868 259.133 95.0518 257.116 95.0518Z" fill="black" fill-opacity="0.42"/>
<path fill-rule="evenodd" clip-rule="evenodd" d="M257.116 126.735C255.1 126.735 253.465 128.37 253.465 130.386C253.465 132.402 255.1 134.037 257.116 134.037C259.133 134.037 260.767 132.402 260.767 130.386C260.767 128.37 259.133 126.735 257.116 126.735Z" fill="black" fill-opacity="0.42"/>
<path fill-rule="evenodd" clip-rule="evenodd" d="M257.116 158.418C255.1 158.418 253.465 160.053 253.465 162.069C253.465 164.086 255.1 165.72 257.116 165.72C259.133 165.72 260.767 164.086 260.767 162.069C260.767 160.053 259.133 158.418 257.116 158.418Z" fill="black" fill-opacity="0.42"/>
<path fill-rule="evenodd" clip-rule="evenodd" d="M257.116 190.101C255.1 190.101 253.465 191.736 253.465 193.752C253.465 195.769 255.1 197.403 257.116 197.403C259.133 197.403 260.767 195.769 260.767 193.752C260.767 191.736 259.133 190.101 257.116 190.101Z" fill="black" fill-opacity="0.42"/>
<path fill-rule="evenodd" clip-rule="evenodd" d="M257.116 221.784C255.1 221.784 253.465 223.419 253.465 225.435C253.465 227.452 255.1 229.086 257.116 229.086C259.133 229.086 260.767 227.452 260.767 225.435C260.767 223.419 259.133 221.784 257.116 221.784Z" fill="black" fill-opacity="0.42"/>
<path fill-rule="evenodd" clip-rule="evenodd" d="M257.116 253.468C255.1 253.468 253.465 255.103 253.465 257.119C253.465 259.135 255.1 260.77 257.116 260.77C259.133 260.77 260.767 259.135 260.767 257.119C260.767 255.103 259.133 253.468 257.116 253.468Z" fill="black" fill-opacity="0.42"/>
<path fill-rule="evenodd" clip-rule="evenodd" d="M257.116 285.151C255.1 285.151 253.465 286.786 253.465 288.802C253.465 290.818 255.1 292.453 257.116 292.453C259.133 292.453 260.767 290.818 260.767 288.802C260.767 286.786 259.133 285.151 257.116 285.151Z" fill="black" fill-opacity="0.42"/>
<path fill-rule="evenodd" clip-rule="evenodd" d="M257.116 316.834C255.1 316.834 253.465 318.469 253.465 320.485C253.465 322.501 255.1 324.136 257.116 324.136C259.133 324.136 260.767 322.501 260.767 320.485C260.767 318.469 259.133 316.834 257.116 316.834Z" fill="black" fill-opacity="0.42"/>
<path fill-rule="evenodd" clip-rule="evenodd" d="M257.116 348.517C255.1 348.517 253.465 350.152 253.465 352.168C253.465 354.184 255.1 355.819 257.116 355.819C259.133 355.819 260.767 354.184 260.767 352.168C260.767 350.152 259.133 348.517 257.116 348.517Z" fill="black" fill-opacity="0.42"/>
<path fill-rule="evenodd" clip-rule="evenodd" d="M257.116 380.2C255.1 380.2 253.465 381.835 253.465 383.851C253.465 385.868 255.1 387.502 257.116 387.502C259.133 387.502 260.767 385.868 260.767 383.851C260.767 381.835 259.133 380.2 257.116 380.2Z" fill="black" fill-opacity="0.42"/>
<path fill-rule="evenodd" clip-rule="evenodd" d="M257.116 411.884C255.1 411.884 253.465 413.519 253.465 415.535C253.465 417.551 255.1 419.186 257.116 419.186C259.133 419.186 260.767 417.551 260.767 415.535C260.767 413.519 259.133 411.884 257.116 411.884Z" fill="black" fill-opacity="0.42"/>
<path fill-rule="evenodd" clip-rule="evenodd" d="M257.116 443.567C255.1 443.567 253.465 445.202 253.465 447.218C253.465 449.234 255.1 450.869 257.116 450.869C259.133 450.869 260.767 449.234 260.767 447.218C260.767 445.202 259.133 443.567 257.116 443.567Z" fill="black" fill-opacity="0.42"/>
<path fill-rule="evenodd" clip-rule="evenodd" d="M257.116 470.25C255.1 470.25 253.465 471.885 253.465 473.901C253.465 475.917 255.1 477.552 257.116 477.552C259.133 477.552 260.767 475.917 260.767 473.901C260.767 471.885 259.133 470.25 257.116 470.25Z" fill="black" fill-opacity="0.42"/>
<path fill-rule="evenodd" clip-rule="evenodd" d="M257.116 496.933C255.1 496.933 253.465 498.568 253.465 500.584C253.465 502.6 255.1 504.235 257.116 504.235C259.133 504.235 260.767 502.6 260.767 500.584C260.767 498.568 259.133 496.933 257.116 496.933Z" fill="black" fill-opacity="0.42"/>
<path fill-rule="evenodd" clip-rule="evenodd" d="M288.799 0.00244141C286.783 0.00244141 285.148 1.63694 285.148 3.65344C285.148 5.66944 286.783 7.30444 288.799 7.30444C290.816 7.30444 292.451 5.66944 292.451 3.65344C292.451 1.63694 290.816 0.00244141 288.799 0.00244141Z" fill="black" fill-opacity="0.42"/>
<path fill-rule="evenodd" clip-rule="evenodd" d="M288.799 31.6855C286.783 31.6855 285.148 33.32 285.148 35.3365C285.148 37.3525 286.783 38.9875 288.799 38.9875C290.816 38.9875 292.451 37.3525 292.451 35.3365C292.451 33.32 290.816 31.6855 288.799 31.6855Z" fill="black" fill-opacity="0.42"/>
<path fill-rule="evenodd" clip-rule="evenodd" d="M288.799 63.3687C286.783 63.3687 285.148 65.0032 285.148 67.0197C285.148 69.0362 286.783 70.6707 288.799 70.6707C290.816 70.6707 292.451 69.0362 292.451 67.0197C292.451 65.0032 290.816 63.3687 288.799 63.3687Z" fill="black" fill-opacity="0.42"/>
<path fill-rule="evenodd" clip-rule="evenodd" d="M288.799 95.0518C286.783 95.0518 285.148 96.6868 285.148 98.7028C285.148 100.719 286.783 102.354 288.799 102.354C290.816 102.354 292.451 100.719 292.451 98.7028C292.451 96.6868 290.816 95.0518 288.799 95.0518Z" fill="black" fill-opacity="0.42"/>
<path fill-rule="evenodd" clip-rule="evenodd" d="M288.799 126.735C286.783 126.735 285.148 128.37 285.148 130.386C285.148 132.402 286.783 134.037 288.799 134.037C290.816 134.037 292.451 132.402 292.451 130.386C292.451 128.37 290.816 126.735 288.799 126.735Z" fill="black" fill-opacity="0.42"/>
<path fill-rule="evenodd" clip-rule="evenodd" d="M288.799 158.418C286.783 158.418 285.148 160.053 285.148 162.069C285.148 164.086 286.783 165.72 288.799 165.72C290.816 165.72 292.451 164.086 292.451 162.069C292.451 160.053 290.816 158.418 288.799 158.418Z" fill="black" fill-opacity="0.42"/>
<path fill-rule="evenodd" clip-rule="evenodd" d="M288.799 190.101C286.783 190.101 285.148 191.736 285.148 193.752C285.148 195.769 286.783 197.403 288.799 197.403C290.816 197.403 292.451 195.769 292.451 193.752C292.451 191.736 290.816 190.101 288.799 190.101Z" fill="black" fill-opacity="0.42"/>
<path fill-rule="evenodd" clip-rule="evenodd" d="M288.799 221.784C286.783 221.784 285.148 223.419 285.148 225.435C285.148 227.452 286.783 229.086 288.799 229.086C290.816 229.086 292.451 227.452 292.451 225.435C292.451 223.419 290.816 221.784 288.799 221.784Z" fill="black" fill-opacity="0.42"/>
<path fill-rule="evenodd" clip-rule="evenodd" d="M288.799 253.468C286.783 253.468 285.148 255.103 285.148 257.119C285.148 259.135 286.783 260.77 288.799 260.77C290.816 260.77 292.451 259.135 292.451 257.119C292.451 255.103 290.816 253.468 288.799 253.468Z" fill="black" fill-opacity="0.42"/>
<path fill-rule="evenodd" clip-rule="evenodd" d="M288.799 285.151C286.783 285.151 285.148 286.786 285.148 288.802C285.148 290.818 286.783 292.453 288.799 292.453C290.816 292.453 292.451 290.818 292.451 288.802C292.451 286.786 290.816 285.151 288.799 285.151Z" fill="black" fill-opacity="0.42"/>
<path fill-rule="evenodd" clip-rule="evenodd" d="M288.799 316.834C286.783 316.834 285.148 318.469 285.148 320.485C285.148 322.501 286.783 324.136 288.799 324.136C290.816 324.136 292.451 322.501 292.451 320.485C292.451 318.469 290.816 316.834 288.799 316.834Z" fill="black" fill-opacity="0.42"/>
<path fill-rule="evenodd" clip-rule="evenodd" d="M288.799 348.517C286.783 348.517 285.148 350.152 285.148 352.168C285.148 354.184 286.783 355.819 288.799 355.819C290.816 355.819 292.451 354.184 292.451 352.168C292.451 350.152 290.816 348.517 288.799 348.517Z" fill="black" fill-opacity="0.42"/>
<path fill-rule="evenodd" clip-rule="evenodd" d="M288.799 380.2C286.783 380.2 285.148 381.835 285.148 383.851C285.148 385.868 286.783 387.502 288.799 387.502C290.816 387.502 292.451 385.868 292.451 383.851C292.451 381.835 290.816 380.2 288.799 380.2Z" fill="black" fill-opacity="0.42"/>
<path fill-rule="evenodd" clip-rule="evenodd" d="M288.799 411.884C286.783 411.884 285.148 413.519 285.148 415.535C285.148 417.551 286.783 419.186 288.799 419.186C290.816 419.186 292.451 417.551 292.451 415.535C292.451 413.519 290.816 411.884 288.799 411.884Z" fill="black" fill-opacity="0.42"/>
<path fill-rule="evenodd" clip-rule="evenodd" d="M288.799 443.567C286.783 443.567 285.148 445.202 285.148 447.218C285.148 449.234 286.783 450.869 288.799 450.869C290.816 450.869 292.451 449.234 292.451 447.218C292.451 445.202 290.816 443.567 288.799 443.567Z" fill="black" fill-opacity="0.42"/>
<path fill-rule="evenodd" clip-rule="evenodd" d="M288.799 470.25C286.783 470.25 285.148 471.885 285.148 473.901C285.148 475.917 286.783 477.552 288.799 477.552C290.816 477.552 292.451 475.917 292.451 473.901C292.451 471.885 290.816 470.25 288.799 470.25Z" fill="black" fill-opacity="0.42"/>
<path fill-rule="evenodd" clip-rule="evenodd" d="M288.799 496.933C286.783 496.933 285.148 498.568 285.148 500.584C285.148 502.6 286.783 504.235 288.799 504.235C290.816 504.235 292.451 502.6 292.451 500.584C292.451 498.568 290.816 496.933 288.799 496.933Z" fill="black" fill-opacity="0.42"/>
<path fill-rule="evenodd" clip-rule="evenodd" d="M320.483 0.00244141C318.466 0.00244141 316.831 1.63694 316.831 3.65344C316.831 5.66944 318.466 7.30444 320.483 7.30444C322.499 7.30444 324.134 5.66944 324.134 3.65344C324.134 1.63694 322.499 0.00244141 320.483 0.00244141Z" fill="black" fill-opacity="0.42"/>
<path fill-rule="evenodd" clip-rule="evenodd" d="M320.483 31.6855C318.466 31.6855 316.831 33.32 316.831 35.3365C316.831 37.3525 318.466 38.9875 320.483 38.9875C322.499 38.9875 324.134 37.3525 324.134 35.3365C324.134 33.32 322.499 31.6855 320.483 31.6855Z" fill="black" fill-opacity="0.42"/>
<path fill-rule="evenodd" clip-rule="evenodd" d="M320.483 63.3687C318.466 63.3687 316.831 65.0032 316.831 67.0197C316.831 69.0362 318.466 70.6707 320.483 70.6707C322.499 70.6707 324.134 69.0362 324.134 67.0197C324.134 65.0032 322.499 63.3687 320.483 63.3687Z" fill="black" fill-opacity="0.42"/>
<path fill-rule="evenodd" clip-rule="evenodd" d="M320.483 95.0518C318.466 95.0518 316.831 96.6868 316.831 98.7028C316.831 100.719 318.466 102.354 320.483 102.354C322.499 102.354 324.134 100.719 324.134 98.7028C324.134 96.6868 322.499 95.0518 320.483 95.0518Z" fill="black" fill-opacity="0.42"/>
<path fill-rule="evenodd" clip-rule="evenodd" d="M320.483 126.735C318.466 126.735 316.831 128.37 316.831 130.386C316.831 132.402 318.466 134.037 320.483 134.037C322.499 134.037 324.134 132.402 324.134 130.386C324.134 128.37 322.499 126.735 320.483 126.735Z" fill="black" fill-opacity="0.42"/>
<path fill-rule="evenodd" clip-rule="evenodd" d="M320.483 158.418C318.466 158.418 316.831 160.053 316.831 162.069C316.831 164.086 318.466 165.72 320.483 165.72C322.499 165.72 324.134 164.086 324.134 162.069C324.134 160.053 322.499 158.418 320.483 158.418Z" fill="black" fill-opacity="0.42"/>
<path fill-rule="evenodd" clip-rule="evenodd" d="M320.483 190.101C318.466 190.101 316.831 191.736 316.831 193.752C316.831 195.769 318.466 197.403 320.483 197.403C322.499 197.403 324.134 195.769 324.134 193.752C324.134 191.736 322.499 190.101 320.483 190.101Z" fill="black" fill-opacity="0.42"/>
<path fill-rule="evenodd" clip-rule="evenodd" d="M320.483 221.784C318.466 221.784 316.831 223.419 316.831 225.435C316.831 227.452 318.466 229.086 320.483 229.086C322.499 229.086 324.134 227.452 324.134 225.435C324.134 223.419 322.499 221.784 320.483 221.784Z" fill="black" fill-opacity="0.42"/>
<path fill-rule="evenodd" clip-rule="evenodd" d="M320.483 253.468C318.466 253.468 316.831 255.103 316.831 257.119C316.831 259.135 318.466 260.77 320.483 260.77C322.499 260.77 324.134 259.135 324.134 257.119C324.134 255.103 322.499 253.468 320.483 253.468Z" fill="black" fill-opacity="0.42"/>
<path fill-rule="evenodd" clip-rule="evenodd" d="M320.483 285.151C318.466 285.151 316.831 286.786 316.831 288.802C316.831 290.818 318.466 292.453 320.483 292.453C322.499 292.453 324.134 290.818 324.134 288.802C324.134 286.786 322.499 285.151 320.483 285.151Z" fill="black" fill-opacity="0.42"/>
<path fill-rule="evenodd" clip-rule="evenodd" d="M320.483 316.834C318.466 316.834 316.831 318.469 316.831 320.485C316.831 322.501 318.466 324.136 320.483 324.136C322.499 324.136 324.134 322.501 324.134 320.485C324.134 318.469 322.499 316.834 320.483 316.834Z" fill="black" fill-opacity="0.42"/>
<path fill-rule="evenodd" clip-rule="evenodd" d="M320.483 348.517C318.466 348.517 316.831 350.152 316.831 352.168C316.831 354.184 318.466 355.819 320.483 355.819C322.499 355.819 324.134 354.184 324.134 352.168C324.134 350.152 322.499 348.517 320.483 348.517Z" fill="black" fill-opacity="0.42"/>
<path fill-rule="evenodd" clip-rule="evenodd" d="M320.483 380.2C318.466 380.2 316.831 381.835 316.831 383.851C316.831 385.868 318.466 387.502 320.483 387.502C322.499 387.502 324.134 385.868 324.134 383.851C324.134 381.835 322.499 380.2 320.483 380.2Z" fill="black" fill-opacity="0.42"/>
<path fill-rule="evenodd" clip-rule="evenodd" d="M320.483 411.884C318.466 411.884 316.831 413.519 316.831 415.535C316.831 417.551 318.466 419.186 320.483 419.186C322.499 419.186 324.134 417.551 324.134 415.535C324.134 413.519 322.499 411.884 320.483 411.884Z" fill="black" fill-opacity="0.42"/>
<path fill-rule="evenodd" clip-rule="evenodd" d="M320.483 443.567C318.466 443.567 316.831 445.202 316.831 447.218C316.831 449.234 318.466 450.869 320.483 450.869C322.499 450.869 324.134 449.234 324.134 447.218C324.134 445.202 322.499 443.567 320.483 443.567Z" fill="black" fill-opacity="0.42"/>
<path fill-rule="evenodd" clip-rule="evenodd" d="M320.483 470.25C318.466 470.25 316.831 471.885 316.831 473.901C316.831 475.917 318.466 477.552 320.483 477.552C322.499 477.552 324.134 475.917 324.134 473.901C324.134 471.885 322.499 470.25 320.483 470.25Z" fill="black" fill-opacity="0.42"/>
<path fill-rule="evenodd" clip-rule="evenodd" d="M320.483 496.933C318.466 496.933 316.831 498.568 316.831 500.584C316.831 502.6 318.466 504.235 320.483 504.235C322.499 504.235 324.134 502.6 324.134 500.584C324.134 498.568 322.499 496.933 320.483 496.933Z" fill="black" fill-opacity="0.42"/>
<path fill-rule="evenodd" clip-rule="evenodd" d="M352.166 0.00244141C350.149 0.00244141 348.514 1.63694 348.514 3.65344C348.514 5.66944 350.149 7.30444 352.166 7.30444C354.182 7.30444 355.817 5.66944 355.817 3.65344C355.817 1.63694 354.182 0.00244141 352.166 0.00244141Z" fill="black" fill-opacity="0.42"/>
<path fill-rule="evenodd" clip-rule="evenodd" d="M352.166 31.6855C350.149 31.6855 348.514 33.32 348.514 35.3365C348.514 37.3525 350.149 38.9875 352.166 38.9875C354.182 38.9875 355.817 37.3525 355.817 35.3365C355.817 33.32 354.182 31.6855 352.166 31.6855Z" fill="black" fill-opacity="0.42"/>
<path fill-rule="evenodd" clip-rule="evenodd" d="M352.166 63.3687C350.149 63.3687 348.514 65.0032 348.514 67.0197C348.514 69.0362 350.149 70.6707 352.166 70.6707C354.182 70.6707 355.817 69.0362 355.817 67.0197C355.817 65.0032 354.182 63.3687 352.166 63.3687Z" fill="black" fill-opacity="0.42"/>
<path fill-rule="evenodd" clip-rule="evenodd" d="M352.166 95.0518C350.149 95.0518 348.514 96.6868 348.514 98.7028C348.514 100.719 350.149 102.354 352.166 102.354C354.182 102.354 355.817 100.719 355.817 98.7028C355.817 96.6868 354.182 95.0518 352.166 95.0518Z" fill="black" fill-opacity="0.42"/>
<path fill-rule="evenodd" clip-rule="evenodd" d="M352.166 126.735C350.149 126.735 348.514 128.37 348.514 130.386C348.514 132.402 350.149 134.037 352.166 134.037C354.182 134.037 355.817 132.402 355.817 130.386C355.817 128.37 354.182 126.735 352.166 126.735Z" fill="black" fill-opacity="0.42"/>
<path fill-rule="evenodd" clip-rule="evenodd" d="M352.166 158.418C350.149 158.418 348.514 160.053 348.514 162.069C348.514 164.086 350.149 165.72 352.166 165.72C354.182 165.72 355.817 164.086 355.817 162.069C355.817 160.053 354.182 158.418 352.166 158.418Z" fill="black" fill-opacity="0.42"/>
<path fill-rule="evenodd" clip-rule="evenodd" d="M352.166 190.101C350.149 190.101 348.514 191.736 348.514 193.752C348.514 195.769 350.149 197.403 352.166 197.403C354.182 197.403 355.817 195.769 355.817 193.752C355.817 191.736 354.182 190.101 352.166 190.101Z" fill="black" fill-opacity="0.42"/>
<path fill-rule="evenodd" clip-rule="evenodd" d="M352.166 221.784C350.149 221.784 348.514 223.419 348.514 225.435C348.514 227.452 350.149 229.086 352.166 229.086C354.182 229.086 355.817 227.452 355.817 225.435C355.817 223.419 354.182 221.784 352.166 221.784Z" fill="black" fill-opacity="0.42"/>
<path fill-rule="evenodd" clip-rule="evenodd" d="M352.166 253.468C350.149 253.468 348.514 255.103 348.514 257.119C348.514 259.135 350.149 260.77 352.166 260.77C354.182 260.77 355.817 259.135 355.817 257.119C355.817 255.103 354.182 253.468 352.166 253.468Z" fill="black" fill-opacity="0.42"/>
<path fill-rule="evenodd" clip-rule="evenodd" d="M352.166 285.151C350.149 285.151 348.514 286.786 348.514 288.802C348.514 290.818 350.149 292.453 352.166 292.453C354.182 292.453 355.817 290.818 355.817 288.802C355.817 286.786 354.182 285.151 352.166 285.151Z" fill="black" fill-opacity="0.42"/>
<path fill-rule="evenodd" clip-rule="evenodd" d="M352.166 316.834C350.149 316.834 348.514 318.469 348.514 320.485C348.514 322.501 350.149 324.136 352.166 324.136C354.182 324.136 355.817 322.501 355.817 320.485C355.817 318.469 354.182 316.834 352.166 316.834Z" fill="black" fill-opacity="0.42"/>
<path fill-rule="evenodd" clip-rule="evenodd" d="M352.166 348.517C350.149 348.517 348.514 350.152 348.514 352.168C348.514 354.184 350.149 355.819 352.166 355.819C354.182 355.819 355.817 354.184 355.817 352.168C355.817 350.152 354.182 348.517 352.166 348.517Z" fill="black" fill-opacity="0.42"/>
<path fill-rule="evenodd" clip-rule="evenodd" d="M352.166 380.2C350.149 380.2 348.514 381.835 348.514 383.851C348.514 385.868 350.149 387.502 352.166 387.502C354.182 387.502 355.817 385.868 355.817 383.851C355.817 381.835 354.182 380.2 352.166 380.2Z" fill="black" fill-opacity="0.42"/>
<path fill-rule="evenodd" clip-rule="evenodd" d="M352.166 411.884C350.149 411.884 348.514 413.519 348.514 415.535C348.514 417.551 350.149 419.186 352.166 419.186C354.182 419.186 355.817 417.551 355.817 415.535C355.817 413.519 354.182 411.884 352.166 411.884Z" fill="black" fill-opacity="0.42"/>
<path fill-rule="evenodd" clip-rule="evenodd" d="M352.166 443.567C350.149 443.567 348.514 445.202 348.514 447.218C348.514 449.234 350.149 450.869 352.166 450.869C354.182 450.869 355.817 449.234 355.817 447.218C355.817 445.202 354.182 443.567 352.166 443.567Z" fill="black" fill-opacity="0.42"/>
<path fill-rule="evenodd" clip-rule="evenodd" d="M352.166 470.25C350.149 470.25 348.514 471.885 348.514 473.901C348.514 475.917 350.149 477.552 352.166 477.552C354.182 477.552 355.817 475.917 355.817 473.901C355.817 471.885 354.182 470.25 352.166 470.25Z" fill="black" fill-opacity="0.42"/>
<path fill-rule="evenodd" clip-rule="evenodd" d="M352.166 496.933C350.149 496.933 348.514 498.568 348.514 500.584C348.514 502.6 350.149 504.235 352.166 504.235C354.182 504.235 355.817 502.6 355.817 500.584C355.817 498.568 354.182 496.933 352.166 496.933Z" fill="black" fill-opacity="0.42"/>
<path fill-rule="evenodd" clip-rule="evenodd" d="M383.849 0.00244141C381.833 0.00244141 380.198 1.63694 380.198 3.65344C380.198 5.66944 381.833 7.30444 383.849 7.30444C385.865 7.30444 387.5 5.66944 387.5 3.65344C387.5 1.63694 385.865 0.00244141 383.849 0.00244141Z" fill="black" fill-opacity="0.42"/>
<path fill-rule="evenodd" clip-rule="evenodd" d="M383.849 31.6855C381.833 31.6855 380.198 33.32 380.198 35.3365C380.198 37.3525 381.833 38.9875 383.849 38.9875C385.865 38.9875 387.5 37.3525 387.5 35.3365C387.5 33.32 385.865 31.6855 383.849 31.6855Z" fill="black" fill-opacity="0.42"/>
<path fill-rule="evenodd" clip-rule="evenodd" d="M383.849 63.3687C381.833 63.3687 380.198 65.0032 380.198 67.0197C380.198 69.0362 381.833 70.6707 383.849 70.6707C385.865 70.6707 387.5 69.0362 387.5 67.0197C387.5 65.0032 385.865 63.3687 383.849 63.3687Z" fill="black" fill-opacity="0.42"/>
<path fill-rule="evenodd" clip-rule="evenodd" d="M383.849 95.0518C381.833 95.0518 380.198 96.6868 380.198 98.7028C380.198 100.719 381.833 102.354 383.849 102.354C385.865 102.354 387.5 100.719 387.5 98.7028C387.5 96.6868 385.865 95.0518 383.849 95.0518Z" fill="black" fill-opacity="0.42"/>
<path fill-rule="evenodd" clip-rule="evenodd" d="M383.849 126.735C381.833 126.735 380.198 128.37 380.198 130.386C380.198 132.402 381.833 134.037 383.849 134.037C385.865 134.037 387.5 132.402 387.5 130.386C387.5 128.37 385.865 126.735 383.849 126.735Z" fill="black" fill-opacity="0.42"/>
<path fill-rule="evenodd" clip-rule="evenodd" d="M383.849 158.418C381.833 158.418 380.198 160.053 380.198 162.069C380.198 164.086 381.833 165.72 383.849 165.72C385.865 165.72 387.5 164.086 387.5 162.069C387.5 160.053 385.865 158.418 383.849 158.418Z" fill="black" fill-opacity="0.42"/>
<path fill-rule="evenodd" clip-rule="evenodd" d="M383.849 190.101C381.833 190.101 380.198 191.736 380.198 193.752C380.198 195.769 381.833 197.403 383.849 197.403C385.865 197.403 387.5 195.769 387.5 193.752C387.5 191.736 385.865 190.101 383.849 190.101Z" fill="black" fill-opacity="0.42"/>
<path fill-rule="evenodd" clip-rule="evenodd" d="M383.849 221.784C381.833 221.784 380.198 223.419 380.198 225.435C380.198 227.452 381.833 229.086 383.849 229.086C385.865 229.086 387.5 227.452 387.5 225.435C387.5 223.419 385.865 221.784 383.849 221.784Z" fill="black" fill-opacity="0.42"/>
<path fill-rule="evenodd" clip-rule="evenodd" d="M383.849 253.468C381.833 253.468 380.198 255.103 380.198 257.119C380.198 259.135 381.833 260.77 383.849 260.77C385.865 260.77 387.5 259.135 387.5 257.119C387.5 255.103 385.865 253.468 383.849 253.468Z" fill="black" fill-opacity="0.42"/>
<path fill-rule="evenodd" clip-rule="evenodd" d="M383.849 285.151C381.833 285.151 380.198 286.786 380.198 288.802C380.198 290.818 381.833 292.453 383.849 292.453C385.865 292.453 387.5 290.818 387.5 288.802C387.5 286.786 385.865 285.151 383.849 285.151Z" fill="black" fill-opacity="0.42"/>
<path fill-rule="evenodd" clip-rule="evenodd" d="M383.849 316.834C381.833 316.834 380.198 318.469 380.198 320.485C380.198 322.501 381.833 324.136 383.849 324.136C385.865 324.136 387.5 322.501 387.5 320.485C387.5 318.469 385.865 316.834 383.849 316.834Z" fill="black" fill-opacity="0.42"/>
<path fill-rule="evenodd" clip-rule="evenodd" d="M383.849 348.517C381.833 348.517 380.198 350.152 380.198 352.168C380.198 354.184 381.833 355.819 383.849 355.819C385.865 355.819 387.5 354.184 387.5 352.168C387.5 350.152 385.865 348.517 383.849 348.517Z" fill="black" fill-opacity="0.42"/>
<path fill-rule="evenodd" clip-rule="evenodd" d="M383.849 380.2C381.833 380.2 380.198 381.835 380.198 383.851C380.198 385.868 381.833 387.502 383.849 387.502C385.865 387.502 387.5 385.868 387.5 383.851C387.5 381.835 385.865 380.2 383.849 380.2Z" fill="black" fill-opacity="0.42"/>
<path fill-rule="evenodd" clip-rule="evenodd" d="M383.849 411.884C381.833 411.884 380.198 413.519 380.198 415.535C380.198 417.551 381.833 419.186 383.849 419.186C385.865 419.186 387.5 417.551 387.5 415.535C387.5 413.519 385.865 411.884 383.849 411.884Z" fill="black" fill-opacity="0.42"/>
<path fill-rule="evenodd" clip-rule="evenodd" d="M383.849 443.567C381.833 443.567 380.198 445.202 380.198 447.218C380.198 449.234 381.833 450.869 383.849 450.869C385.865 450.869 387.5 449.234 387.5 447.218C387.5 445.202 385.865 443.567 383.849 443.567Z" fill="black" fill-opacity="0.42"/>
<path fill-rule="evenodd" clip-rule="evenodd" d="M383.849 470.25C381.833 470.25 380.198 471.885 380.198 473.901C380.198 475.917 381.833 477.552 383.849 477.552C385.865 477.552 387.5 475.917 387.5 473.901C387.5 471.885 385.865 470.25 383.849 470.25Z" fill="black" fill-opacity="0.42"/>
<path fill-rule="evenodd" clip-rule="evenodd" d="M383.849 496.933C381.833 496.933 380.198 498.568 380.198 500.584C380.198 502.6 381.833 504.235 383.849 504.235C385.865 504.235 387.5 502.6 387.5 500.584C387.5 498.568 385.865 496.933 383.849 496.933Z" fill="black" fill-opacity="0.42"/>
</svg>
