<svg width="54" height="54" viewBox="0 0 54 54" fill="none" xmlns="http://www.w3.org/2000/svg">
<path fill-rule="evenodd" clip-rule="evenodd" d="M53.7047 51.0609L37.125 23.0484V1.96875C37.125 0.885937 36.2109 0 35.0859 0C33.9609 0 33.0469 0.871875 33.0469 1.96875V23.5688C33.0469 23.8219 33.1312 24.075 33.2297 24.3141C32.1609 22.7531 30.3328 21.7266 28.2516 21.7266C24.9469 21.7266 22.275 24.3 22.275 27.4922C22.275 29.8547 23.7516 31.9219 25.8469 32.7656H15.7219L20.6437 24.5391C20.8125 24.2437 20.9391 23.9062 20.9391 23.5688V19.2938C21.5016 19.7438 22.3453 20.0109 23.2031 20.0109C25.3547 20.0109 27.0703 18.3375 27.0703 16.2703C27.0703 14.2031 25.3547 12.5297 23.2031 12.5297C22.3453 12.5297 21.5016 12.7969 20.9391 13.2469V1.96875C20.9391 0.885937 20.025 0 18.9 0C17.775 0 16.8609 0.871875 16.8609 1.96875V23.0484L0.295308 51.0609C-0.0562547 51.6656 -0.0703172 52.4109 0.295308 53.0156C0.660933 53.6203 1.30781 54 2.03906 54H27H51.9609C52.6781 54 53.3391 53.6344 53.7047 53.0156C54.0703 52.425 54.0562 51.6656 53.7047 51.0609ZM30.6844 32.7656C32.7797 31.9219 34.2562 29.8406 34.2562 27.4922C34.2562 26.6906 34.0875 25.9172 33.7781 25.2281L38.1375 32.7656H30.6844Z" fill="white"/>
<path fill-rule="evenodd" clip-rule="evenodd" d="M28.2797 9.08438C29.9672 9.08438 31.3313 7.7625 31.3313 6.14532C31.3313 4.51407 29.9672 3.20625 28.2797 3.20625C26.5922 3.20625 25.2281 4.52813 25.2281 6.14532C25.2141 7.7625 26.5922 9.08438 28.2797 9.08438Z" fill="white"/>
</svg>
