<svg width="22" height="22" viewBox="0 0 22 22" fill="none" xmlns="http://www.w3.org/2000/svg">
<path fill-rule="evenodd" clip-rule="evenodd" d="M11 0C4.92483 0 0 4.92488 0 11C0 17.0751 4.92483 22 11 22C17.0751 22 22 17.0751 22 11C22 4.92488 17.0751 0 11 0ZM9.86039 20.3605C7.77335 20.1106 5.84232 19.1763 4.33294 17.667C2.55211 15.8862 1.57141 13.5185 1.57141 11C1.57141 8.73284 2.36659 6.58815 3.82435 4.88342C3.8619 5.33384 3.95461 5.81673 3.93086 6.1619C3.84413 7.42029 3.71996 8.20785 4.45653 9.26951C4.74349 9.68301 4.81398 10.2758 4.95365 10.7544C5.09025 11.2226 5.63597 11.4682 6.01235 11.7567C6.77172 12.3389 7.49819 13.0156 8.30341 13.528C8.83485 13.8662 9.16681 14.0345 9.01117 14.683C8.88599 15.2045 8.85103 15.5258 8.58122 15.9905C8.49887 16.1322 8.89202 17.0438 9.02286 17.1746C9.41938 17.5711 9.81285 17.9349 10.2451 18.2918C10.9152 18.8455 10.18 19.5649 9.86039 20.3605ZM17.667 17.667C16.3114 19.0226 14.6156 19.9139 12.7722 20.2626C13.0335 19.6166 13.4986 19.0426 13.9301 18.7098C14.3054 18.4202 14.7755 17.8632 14.9716 17.422C15.1675 16.9814 15.427 16.5994 15.6896 16.1942C16.0632 15.6178 14.7684 14.7485 14.3488 14.5663C13.4046 14.1564 12.6938 13.6033 11.8547 13.0128C11.2569 12.5922 10.0431 13.2325 9.36809 12.9379C8.44361 12.5342 7.68197 11.8328 6.87838 11.2277C6.04915 10.6032 6.08924 9.87509 6.08924 8.95379C6.73877 8.97775 7.66277 8.77403 8.09399 9.29638C8.23006 9.46122 8.69793 10.1976 9.01112 9.93596C9.26697 9.72215 8.82152 8.8651 8.73548 8.66361C8.47079 8.04407 9.33858 7.80244 9.78275 7.38232C10.3624 6.83423 11.6057 5.97464 11.5074 5.58176C11.4092 5.18888 10.2634 4.07576 9.59041 4.24944C9.48956 4.27546 8.60163 5.20649 8.43007 5.35256C8.43462 5.04868 8.43917 4.74486 8.44382 4.44099C8.44673 4.24912 8.0859 4.05218 8.10266 3.92843C8.14497 3.61567 9.01556 3.04806 9.23212 2.79897C9.08039 2.70415 8.56265 2.25944 8.40596 2.3247C8.02656 2.48283 7.59809 2.59177 7.2187 2.74984C7.2187 2.61826 7.20273 2.49467 7.18369 2.37262C7.94396 2.036 8.74838 1.80194 9.57989 1.67708L10.3247 1.9764L10.8506 2.6005L11.3754 3.14166L11.8342 3.28948L12.5629 2.60224L12.375 2.11163V1.67062C13.8161 1.87994 15.177 2.41757 16.369 3.24659C16.1557 3.26568 15.9214 3.29704 15.657 3.33067C15.5478 3.26615 15.4077 3.23686 15.2887 3.19196C15.6341 3.93456 15.9943 4.66691 16.3603 5.39968C16.7513 6.18242 17.6186 7.02202 17.7709 7.84829C17.9504 8.82221 17.8259 9.70687 17.9241 10.8527C18.0186 11.9562 19.1681 13.2099 19.1681 13.2099C19.1681 13.2099 19.6989 13.3907 20.1404 13.3277C19.7289 14.9557 18.8853 16.4486 17.667 17.667Z" fill="black" fill-opacity="0.38"/>
</svg>
