<svg width="38" height="38" viewBox="0 0 38 38" fill="none" xmlns="http://www.w3.org/2000/svg">
<circle cx="19.25" cy="18.75" r="18.75" fill="black" fill-opacity="0.08"/>
<circle cx="19.25" cy="19" r="3.5" fill="#03ACF2"/>
<path fill-rule="evenodd" clip-rule="evenodd" d="M16.1273 15.3381C17.0339 14.4315 18.2393 13.9268 19.5214 13.9268C20.8035 13.9268 22.0088 14.4341 22.9154 15.3407C23.4906 15.916 23.9016 16.6072 24.1253 17.3786H27.7285V12.5358C27.7285 11.3996 26.8503 10.5215 25.7142 10.5215H13.3714C12.2353 10.5215 11.2714 11.3996 11.2714 12.5358V17.3786H14.9173C15.1411 16.6072 15.5521 15.9133 16.1273 15.3381ZM26.3571 14.0872C26.3571 14.3902 26.1116 14.6358 25.8086 14.6358H24.1629C23.8599 14.6358 23.6143 14.3902 23.6143 14.0872V12.4415C23.6143 12.1385 23.8599 11.8929 24.1629 11.8929H25.8086C26.1115 11.8929 26.3571 12.1385 26.3571 12.4415V14.0872Z" fill="#03ACF2"/>
<path fill-rule="evenodd" clip-rule="evenodd" d="M22.9154 22.1262C22.0088 23.0328 20.8035 23.5268 19.5214 23.5268C18.2393 23.5268 17.0339 23.0355 16.1273 22.1289C15.2224 21.224 14.7234 19.9929 14.7215 18.75H11.2714V24.8786C11.2714 26.0147 12.2353 26.9786 13.3714 26.9786H25.7142C26.8503 26.9786 27.7285 26.0147 27.7285 24.8786V18.75H24.3212C24.3194 19.9929 23.8204 21.2213 22.9154 22.1262Z" fill="#03ACF2"/>
</svg>
