<svg width="17" height="17" viewBox="0 0 17 17" fill="none" xmlns="http://www.w3.org/2000/svg">
<path fill-rule="evenodd" clip-rule="evenodd" d="M5.12732 5.33807C6.03391 4.43147 7.23926 3.92683 8.52137 3.92683C9.80347 3.92683 11.0088 4.43413 11.9154 5.34073C12.4906 5.91596 12.9016 6.6072 13.1253 7.37863H16.7285V2.53577C16.7285 1.39963 15.8503 0.521484 14.7142 0.521484H2.37141C1.23527 0.521484 0.271423 1.39963 0.271423 2.53577V7.37863H3.91734C4.14114 6.6072 4.55209 5.9133 5.12732 5.33807ZM15.3571 4.0872C15.3571 4.39016 15.1116 4.63577 14.8086 4.63577H13.1629C12.8599 4.63577 12.6143 4.3902 12.6143 4.0872V2.44148C12.6143 2.13853 12.8599 1.89291 13.1629 1.89291H14.8086C15.1115 1.89291 15.3571 2.13848 15.3571 2.44148V4.0872Z" fill="#03ACF2"/>
<path fill-rule="evenodd" clip-rule="evenodd" d="M11.9154 12.1262C11.0088 13.0328 9.80347 13.5268 8.52137 13.5268C7.23926 13.5268 6.03391 13.0355 5.12732 12.1289C4.2224 11.224 3.72337 9.99286 3.72149 8.75H0.271423V14.8786C0.271423 16.0147 1.23527 16.9786 2.37141 16.9786H14.7142C15.8503 16.9786 16.7285 16.0147 16.7285 14.8786V8.75H13.3212C13.3194 9.99286 12.8204 11.2213 11.9154 12.1262Z" fill="#03ACF2"/>
</svg>
