<svg width="21" height="29" viewBox="0 0 21 29" fill="none" xmlns="http://www.w3.org/2000/svg">
<path fill-rule="evenodd" clip-rule="evenodd" d="M21 6.10715C19.7916 6.37198 18.6457 6.66608 17.56 6.98206C14.9683 7.73642 12.7228 8.61655 10.805 9.52766C9.57043 10.1141 9.12424 10.3797 7.50435 11.2999C3.76726 13.423 1.52501 15.7085 1.52501 20.3501C1.52501 24.9917 5.08913 28.5 10.75 28.5C16.4109 28.5 19.975 24.9917 19.975 20.3501C19.975 15.7085 16.0671 12.2143 21 6.10715Z" fill="white"/>
<path fill-rule="evenodd" clip-rule="evenodd" d="M0.500011 4.07143C3.157 7.06641 3.35874 10.6806 3.02292 13.2793C3.84113 12.5621 5.0202 11.6422 6.61965 10.6463C7.03234 10.3892 7.47245 10.1273 7.94222 9.8624C8.68393 9.44412 9.45012 9.04671 10.2378 8.66864C9.65403 7.97535 8.82397 7.35777 7.89116 6.81773C4.76856 5.01015 0.500011 4.07143 0.500011 4.07143Z" fill="white"/>
<path fill-rule="evenodd" clip-rule="evenodd" d="M16.9 2.03572C16.9 2.03572 11.8632 2.18337 8.52826 6.00975C9.59355 6.63974 10.4332 7.31407 11.0241 8.01576L11.1986 8.22296C13.5786 7.15459 16.8445 6.0546 18.95 5.55051C18.5411 4.06043 16.9 2.03572 16.9 2.03572Z" fill="white"/>
<path fill-rule="evenodd" clip-rule="evenodd" d="M5.62501 0C4.64767 1.42538 3.97963 2.88174 3.68161 3.81677C5.03403 4.22105 5.95423 4.65746 7.61434 5.50731C8.22326 4.78208 8.92218 4.13155 9.7031 3.56428C7.82504 0.99591 5.62501 0 5.62501 0Z" fill="white"/>
</svg>
