<svg width="59" height="51" viewBox="0 0 59 51" fill="none" xmlns="http://www.w3.org/2000/svg">
<path fill-rule="evenodd" clip-rule="evenodd" d="M52.65 27.8138C50.0577 27.8138 47.8608 29.5132 47.093 31.8197H42.3573L38.9008 21.4506C38.6356 20.6551 37.8889 20.1206 37.0504 20.1206C37.0367 20.1206 37.0231 20.1206 37.0096 20.1211C36.1545 20.1387 35.4109 20.7091 35.1755 21.5278L29.754 40.3757L23.3734 2.2448C23.2215 1.33677 22.4656 0.5 21.45 0.5C20.4344 0.5 19.7812 1.20117 19.5579 2.09451L12.1261 31.8197H1.52588e-05V35.7042H13.65C14.5456 35.7042 15.3258 35.0969 15.5421 34.2312L21.0714 12.116L27.3265 49.4981C27.4762 50.3936 28.228 50.9451 29.138 50.9966C29.1755 50.9988 29.2128 51 29.25 51C30.115 51 30.8839 50.5507 31.1246 49.714L37.1871 28.6378L39.0992 34.374C39.3641 35.1682 40.1098 35.7042 40.95 35.7042H47.1788C48.0155 37.8893 50.1488 39.4675 52.65 39.4675C55.881 39.4675 58.5 36.7371 58.5 33.5192C58.5 30.3012 55.881 27.8138 52.65 27.8138Z" fill="white"/>
</svg>
