<svg width="595" height="636" viewBox="0 0 595 636" fill="none" xmlns="http://www.w3.org/2000/svg">
<rect width="595" height="636" rx="40" fill="#BBDEFB"/>
<mask id="mask0_0_89" style="mask-type:luminance" maskUnits="userSpaceOnUse" x="0" y="0" width="595" height="636">
<rect width="595" height="636" rx="40" fill="white"/>
</mask>
<g mask="url(#mask0_0_89)">
<path fill-rule="evenodd" clip-rule="evenodd" d="M297.5 224C279.624 224 265 238.174 265 255.5C265 279.125 297.5 314 297.5 314C297.5 314 330 279.125 330 255.5C330 238.174 315.376 224 297.5 224ZM297.5 266.75C291.001 266.75 285.893 261.799 285.893 255.5C285.893 249.201 291.001 244.25 297.5 244.25C303.999 244.25 309.107 249.201 309.107 255.5C309.107 261.799 303.999 266.75 297.5 266.75Z" fill="#EA4335"/>
<path d="M297.5 314L296.403 315.023L297.5 316.2L298.597 315.023L297.5 314ZM297.5 222.5C278.84 222.5 263.5 237.302 263.5 255.5H266.5C266.5 239.047 280.408 225.5 297.5 225.5V222.5ZM263.5 255.5C263.5 261.719 265.63 268.559 268.717 275.237C271.813 281.936 275.927 288.589 280.019 294.466C284.114 300.349 288.205 305.482 291.272 309.145C292.806 310.977 294.085 312.442 294.982 313.452C295.431 313.957 295.784 314.347 296.026 314.613C296.147 314.746 296.241 314.847 296.304 314.916C296.336 314.95 296.36 314.976 296.376 314.994C296.385 315.003 296.391 315.01 296.395 315.015C296.398 315.017 296.399 315.019 296.4 315.02C296.401 315.021 296.402 315.022 296.402 315.022C296.402 315.022 296.403 315.023 297.5 314C298.597 312.977 298.597 312.977 298.597 312.977C298.597 312.977 298.597 312.977 298.597 312.976C298.596 312.976 298.595 312.974 298.593 312.972C298.589 312.969 298.584 312.963 298.577 312.955C298.562 312.939 298.539 312.915 298.51 312.883C298.45 312.818 298.361 312.721 298.244 312.592C298.01 312.335 297.665 311.954 297.225 311.459C296.345 310.469 295.085 309.025 293.572 307.219C290.545 303.604 286.511 298.542 282.481 292.752C278.448 286.958 274.437 280.463 271.44 273.978C268.433 267.473 266.5 261.093 266.5 255.5H263.5ZM297.5 314C298.597 315.023 298.598 315.022 298.598 315.022C298.598 315.022 298.599 315.021 298.6 315.02C298.601 315.019 298.602 315.017 298.605 315.015C298.609 315.01 298.615 315.003 298.624 314.994C298.64 314.976 298.664 314.95 298.696 314.916C298.759 314.847 298.853 314.746 298.974 314.613C299.216 314.347 299.569 313.957 300.018 313.452C300.915 312.442 302.194 310.977 303.728 309.145C306.795 305.482 310.886 300.349 314.981 294.466C319.073 288.589 323.187 281.936 326.283 275.237C329.37 268.559 331.5 261.719 331.5 255.5H328.5C328.5 261.093 326.567 267.473 323.56 273.978C320.563 280.463 316.552 286.958 312.519 292.752C308.489 298.542 304.455 303.604 301.428 307.219C299.915 309.025 298.655 310.469 297.775 311.459C297.335 311.954 296.99 312.335 296.756 312.592C296.639 312.721 296.55 312.818 296.49 312.883C296.461 312.915 296.438 312.939 296.423 312.955C296.416 312.963 296.411 312.969 296.407 312.972C296.405 312.974 296.404 312.976 296.403 312.976C296.403 312.977 296.403 312.977 296.403 312.977C296.403 312.977 296.403 312.977 297.5 314ZM331.5 255.5C331.5 237.302 316.16 222.5 297.5 222.5V225.5C314.592 225.5 328.5 239.047 328.5 255.5H331.5ZM297.5 265.25C291.785 265.25 287.393 260.927 287.393 255.5H284.393C284.393 262.671 290.217 268.25 297.5 268.25V265.25ZM287.393 255.5C287.393 250.073 291.784 245.75 297.5 245.75V242.75C290.217 242.75 284.393 248.328 284.393 255.5H287.393ZM297.5 245.75C303.216 245.75 307.607 250.073 307.607 255.5H310.607C310.607 248.328 304.783 242.75 297.5 242.75V245.75ZM307.607 255.5C307.607 260.927 303.215 265.25 297.5 265.25V268.25C304.783 268.25 310.607 262.671 310.607 255.5H307.607Z" fill="white"/>
</g>
</svg>
