<svg width="46" height="39" viewBox="0 0 46 39" fill="none" xmlns="http://www.w3.org/2000/svg">
<path fill-rule="evenodd" clip-rule="evenodd" d="M45.1978 8.125H32.9928V5.00703C32.8912 2.14297 30.7893 -3.8147e-06 27.7939 -3.8147e-06H23.2449H18.696C15.7107 -3.8147e-06 13.5987 2.14297 13.4971 5.00703V8.125H1.29203C0.845251 8.125 0.500015 8.49062 0.500015 8.9375V38.1875C0.500015 38.6344 0.835097 39 1.29203 39H45.208C45.6548 39 46 38.6344 46 38.1875V8.9375C45.9899 8.49062 45.6548 8.125 45.1978 8.125ZM16.5 5.21413C16.5 5.17255 16.5 5.14137 16.5 5.11018C16.5 5.079 16.5 5.04781 16.5 5.00623C16.5 3.99792 17.3735 3 18.4094 3H23H27.5906C28.6164 3 29.5 3.98752 29.5 5.00623C29.5 5.03742 29.5 5.0686 29.5 5.11018C29.5 5.15176 29.5 5.17255 29.5 5.21413V8H16.5V5.21413ZM33 26H26.5V32.5H20V26H13.5V19.5H20V13H26.5V19.5H33V26Z" fill="white"/>
</svg>
