<svg width="18" height="12" viewBox="0 0 18 12" fill="none" xmlns="http://www.w3.org/2000/svg">
<path fill-rule="evenodd" clip-rule="evenodd" d="M16.8866 8.33334C15.645 8.33334 14.4528 8.19987 13.3605 7.96681C13.0127 7.90006 12.6155 7.93328 12.3672 8.13347L10.1816 9.59997C7.35054 8.63347 5.06609 7.09997 3.62554 5.19987L5.81114 3.73341C6.05941 3.56675 6.15859 3.30016 6.05941 3.06675C5.66191 2.30016 5.46332 1.5 5.46332 0.666656C5.46332 0.300125 5.01636 0 4.47 0H0.993318C0.446953 0 0 0.300125 0 0.666656C0 6.93325 7.54946 12 16.8866 12C17.4328 12 17.88 11.6999 17.88 11.3333V9C17.88 8.63347 17.4328 8.33334 16.8866 8.33334Z" fill="#2196F3"/>
</svg>
