<svg width="101" height="101" viewBox="0 0 101 101" fill="none" xmlns="http://www.w3.org/2000/svg">
<path d="M32.8 0C22.3845 0 14.2262 2.89498 8.55183 8.60398C2.87743 14.313 0 22.521 0 33V99H41V33H16.4C16.4 27.0559 17.6613 22.7736 20.1482 20.271C22.6356 17.769 26.8919 16.5 32.8 16.5" stroke="#03A9F4" stroke-width="4"/>
<path d="M90.8 0C80.3845 0 72.2262 2.89498 66.5518 8.60398C60.8774 14.313 58 22.521 58 33V99H99V33H74.4C74.4 27.0559 75.6613 22.7736 78.1482 20.271C80.6356 17.769 84.8919 16.5 90.8 16.5" stroke="#03A9F4" stroke-width="4"/>
</svg>
