<svg width="35" height="25" viewBox="0 0 35 25" fill="none" xmlns="http://www.w3.org/2000/svg">
<ellipse cx="17.6518" cy="12.3636" rx="4.85714" ry="4.88474" fill="white"/>
<path fill-rule="evenodd" clip-rule="evenodd" d="M9.15181 12.3636C9.15181 9.54729 10.5598 7.08141 12.6667 5.72086L10.9105 3.85001C10.4354 4.20171 9.9861 4.6005 9.56838 5.04547C7.73367 7.00028 6.72324 9.59926 6.72324 12.3636C6.72324 15.128 7.73367 17.727 9.56846 19.6818C9.98617 20.1267 10.4355 20.5256 10.9105 20.8772L12.6668 19.0064C10.5598 17.6459 9.15181 15.18 9.15181 12.3636Z" fill="white"/>
<path fill-rule="evenodd" clip-rule="evenodd" d="M26.1518 12.3636C26.1518 15.18 24.7437 17.6459 22.6369 19.0064L24.3931 20.8772C24.8682 20.5256 25.3175 20.1267 25.7352 19.6818C27.5699 17.727 28.5804 15.128 28.5804 12.3636C28.5804 9.59925 27.5699 7.00026 25.7351 5.04553C25.3174 4.60056 24.8681 4.20177 24.393 3.85007L22.6368 5.72092C24.7437 7.0814 26.1518 9.54727 26.1518 12.3636Z" fill="white"/>
<path fill-rule="evenodd" clip-rule="evenodd" d="M3.08037 12.3636C3.08037 8.1217 4.99674 4.35671 7.95747 1.99754L6.22483 0.151794C5.76955 0.533414 5.33393 0.945259 4.9197 1.38656C3.58232 2.81146 2.53196 4.47135 1.79793 6.32022C1.03741 8.2358 0.651794 10.269 0.651794 12.3636C0.651794 14.4582 1.03741 16.4915 1.79793 18.407C2.53196 20.2561 3.58232 21.9159 4.9197 23.3408C5.33393 23.782 5.76955 24.1938 6.22483 24.5755L7.95739 22.7298C4.99674 20.3706 3.08037 16.6056 3.08037 12.3636Z" fill="white"/>
<path fill-rule="evenodd" clip-rule="evenodd" d="M32.2232 12.3636C32.2232 16.6056 30.3069 20.3706 27.3462 22.7297L29.0787 24.5499C29.534 24.1682 29.9697 23.7819 30.3839 23.3407C31.7213 21.9158 32.7716 20.256 33.5057 18.407C34.2661 16.4915 34.6518 14.4582 34.6518 12.3636C34.6518 10.269 34.2661 8.2358 33.5057 6.32022C32.7716 4.47127 31.7213 2.81146 30.3839 1.38656C29.9697 0.945259 29.534 0.533414 29.0787 0.151794L27.3461 1.99754C30.3069 4.35671 32.2232 8.1217 32.2232 12.3636Z" fill="white"/>
</svg>
