<svg width="36" height="36" viewBox="0 0 36 36" fill="none" xmlns="http://www.w3.org/2000/svg">
<path fill-rule="evenodd" clip-rule="evenodd" d="M31.67 19.8C31.7617 19.2604 31.7617 18.6302 31.7617 18C31.7617 17.3698 31.67 16.8302 31.67 16.2L35.5353 13.2302C35.904 12.9603 35.9956 12.5104 35.7197 12.0603L32.0376 5.84994C31.8534 5.48959 31.3014 5.31037 30.9328 5.48959L26.3302 7.28969C25.4096 6.56986 24.3057 5.9396 23.201 5.48959L22.5565 0.71983C22.4648 0.360348 22.0962 0 21.6359 0H14.2718C13.8115 0 13.443 0.360348 13.3513 0.71983L12.615 5.48959C11.5102 5.9396 10.4979 6.56977 9.48486 7.28969L4.88229 5.48959C4.422 5.31037 3.96171 5.48959 3.77747 5.84994L0.0953943 12.0604C-0.0879781 12.4198 0.00357827 12.9603 0.279632 13.2302L4.23793 16.2C4.23793 16.8302 4.1462 17.3698 4.1462 18C4.1462 18.6302 4.23793 19.1698 4.23793 19.8L0.372487 22.7698C0.00383788 23.0397 -0.0877185 23.4896 0.188162 23.9397L3.87024 30.1501C4.05456 30.5104 4.60649 30.6896 4.97506 30.5104L9.57771 28.7103C10.4982 29.4301 11.6022 30.0604 12.7069 30.5104L13.4432 35.2802C13.5357 35.7302 13.9034 36 14.3637 36H21.7278C22.1881 36 22.5567 35.6397 22.6484 35.2802L23.3855 30.5104C24.4895 30.0604 25.5026 29.4302 26.5147 28.7103L31.1174 30.5104C31.5776 30.6896 32.0378 30.5104 32.2222 30.1501L35.9042 23.9396C36.0885 23.5802 35.996 23.0397 35.7199 22.7698L31.67 19.8ZM17.9539 24.3C14.3636 24.3 11.5103 21.5104 11.5103 18C11.5103 14.4895 14.3636 11.7 17.9539 11.7C21.5443 11.7 24.3976 14.4895 24.3976 18C24.3976 21.5104 21.5443 24.3 17.9539 24.3Z" fill="white" fill-opacity="0.7"/>
</svg>
