<svg width="22" height="22" viewBox="0 0 22 22" fill="none" xmlns="http://www.w3.org/2000/svg">
<path fill-rule="evenodd" clip-rule="evenodd" d="M20.1674 10.9335C20.9401 10.6816 21.5 9.9536 21.5 9.09686C21.5 8.03294 20.6378 7.16499 19.5684 7.16499H13.8238C13.9358 5.76509 14.3837 4.1636 13.8854 2.27653C13.4655 0.686244 11.6794 -0.506473 10.9516 0.215877C10.6716 0.490258 10.7556 1.06702 10.7556 2.10855C10.7556 4.50518 9.75898 6.92981 8.52721 8.19532C8.00091 8.73849 7.11628 8.92327 6.27643 8.95687V8.06093H0V21.5H6.27083V19.7081C7.42422 19.6801 9.21589 19.9993 10.5148 20.0777C13.4263 20.2513 16.2258 19.9433 17.5863 19.6241C18.9469 19.305 19.546 18.8962 19.546 17.9106C19.546 17.5523 19.4396 17.2219 19.2604 16.9419C19.9211 16.6787 20.3858 16.0348 20.3858 15.2788C20.3858 14.8757 20.2514 14.5061 20.0275 14.2037C20.6938 13.9461 21.1697 13.2966 21.1697 12.535C21.1641 11.8351 20.7553 11.2247 20.1674 10.9335ZM2.6875 19.6913C2.19479 19.6913 1.79167 19.2938 1.79167 18.7954C1.79167 18.3026 2.19479 17.8995 2.6875 17.8995C3.18021 17.8995 3.58333 18.297 3.58333 18.7954C3.58333 19.2882 3.18021 19.6913 2.6875 19.6913Z" fill="black" fill-opacity="0.38"/>
</svg>
